<svg width="24" height="25" viewBox="0 0 24 25" fill="none" xmlns="http://www.w3.org/2000/svg">
<g clip-path="url(#clip0_59_11)">
<path d="M21.999 19.176L17.567 16.62L12.784 19.384V24.5L21.999 19.176ZM11.216 24.5V19.381L6.43099 16.619L2.00099 19.176L11.216 24.5ZM11.995 18.025L16.784 15.26V9.736L11.999 6.976L7.21599 9.736V15.263L11.997 18.024L11.995 18.025ZM1.21999 7.182V17.823L5.65199 15.264V9.739L1.21899 7.18L1.21999 7.182ZM20.835 8.303L18.351 9.739V15.261L22.781 17.82V7.178L20.835 8.303ZM2.00099 5.824L6.43599 8.383L11.217 5.621V0.503L2.00099 5.824ZM17.567 8.383L22.001 5.824L12.782 0.5V5.621L17.567 8.383Z" fill="currentColor"/>
</g>
<defs>
<clipPath id="clip0_59_11">
<rect width="24" height="24" fill="white" transform="translate(0 0.5)"/>
</clipPath>
</defs>
</svg>
