<svg width="31" height="32" viewBox="0 0 31 32" fill="none" xmlns="http://www.w3.org/2000/svg">
<path fill-rule="evenodd" clip-rule="evenodd" d="M0.00407836 27.2558C2.11261 26.3566 7.40873 24.9302 11.725 26.4186C16.0413 27.907 18.7948 30.7597 19.632 32C19.663 30.6357 20.7483 27.5535 24.8413 26.1395C23.0429 24.7442 19.1669 20.9116 18.0506 16.7442C19.1979 16.124 22.646 15.107 27.2599 16L30.7948 11.4419L23.3529 8.3721L22.6087 6.69768L17.0273 4.74419V1.48837L13.3064 0C8.77928 3.03874 -0.219178 12.7441 0.00407836 27.2558ZM5.20925 11.4419C6.04645 9.73645 8.87436 5.45118 13.4883 1.9535L15.1627 2.51164V5.76746L21.3023 8.09304L21.7674 9.48839L28.186 12.2791L26.6976 14.2326C24.4341 13.8915 19.0697 13.7675 15.7209 16C15.6279 15.2558 15.6093 13.3582 16.279 11.7209L14.9767 10.9768C14.0155 13.3023 12.893 19.5907 16.093 26.1396L12.5581 24.5582C11.9379 22.3256 11.2558 16.2977 13.4883 10.0465L12.279 9.39536L11.4418 11.7209C10.1705 11.4109 7.14413 10.9209 5.20925 11.4419Z" fill="white"/>
<path d="M20.7775 8.4156L15.8684 6.54547L20.9593 9.16365L20.7775 8.4156Z" fill="white"/>
</svg>
