<svg width="39" height="41" viewBox="0 0 39 41" fill="none" xmlns="http://www.w3.org/2000/svg">
<path fill-rule="evenodd" clip-rule="evenodd" d="M0.00509795 34.5697C2.64076 33.4457 9.26092 31.6628 14.6563 33.5232C20.0516 35.3837 23.4935 38.9496 24.54 40.5C24.5788 38.7946 25.9353 34.9419 31.0516 33.1744C28.8036 31.4302 23.9586 26.6395 22.5633 21.4302C23.9974 20.655 28.3074 19.3837 34.0749 20.5L38.4935 14.8023L29.1912 10.9651L28.2609 8.8721L21.2842 6.43024V2.36047L16.633 0.5C10.9741 4.29842 -0.273972 16.4302 0.00509795 34.5697ZM6.51156 14.8023C7.55807 12.6706 11.093 7.31397 16.8604 2.94187L18.9534 3.63955V7.70932L26.6278 10.6163L27.2092 12.3605L35.2325 15.8489L33.372 18.2907C30.5426 17.8644 23.8371 17.7093 19.6511 20.5C19.5348 19.5698 19.5116 17.1977 20.3488 15.1512L18.7209 14.221C17.5193 17.1279 16.1162 24.9884 20.1162 33.1744L15.6976 31.1977C14.9224 28.407 14.0697 20.8721 16.8604 13.0582L15.3488 12.2442L14.3023 15.1512C12.7131 14.7636 8.93016 14.1512 6.51156 14.8023Z" fill="white"/>
<path d="M25.972 11.0195L19.8356 8.68182L26.1992 11.9546L25.972 11.0195Z" fill="white"/>
</svg>
