<svg width="24" height="25" viewBox="0 0 24 25" fill="none" xmlns="http://www.w3.org/2000/svg">
<path d="M16.4952 3.56002C15.6064 2.67312 14.4747 2.06947 13.243 1.82529C12.0113 1.5811 10.7349 1.70733 9.57488 2.18804C8.41489 2.66874 7.42333 3.48237 6.72541 4.52619C6.02748 5.57001 5.65448 6.79722 5.6535 8.05287L0.00585938 7.69977L18.3592 14.171V8.05287C18.3595 7.21816 18.195 6.39159 17.8752 5.6206C17.5553 4.84961 17.0863 4.14936 16.4952 3.56002ZM10.6268 7.31086C10.4849 7.31086 10.3463 7.2688 10.2283 7.18999C10.1104 7.11119 10.0185 6.99919 9.96421 6.86815C9.90993 6.73711 9.89573 6.59292 9.9234 6.4538C9.95108 6.31469 10.0194 6.18691 10.1197 6.08661C10.22 5.98632 10.3477 5.91802 10.4869 5.89035C10.626 5.86267 10.7702 5.87688 10.9012 5.93115C11.0323 5.98543 11.1443 6.07735 11.2231 6.19529C11.3019 6.31322 11.3439 6.45187 11.3439 6.59371C11.3441 6.68843 11.3254 6.78224 11.289 6.8697C11.2527 6.95715 11.1993 7.03653 11.1321 7.10323C11.0648 7.16993 10.985 7.22262 10.8972 7.25826C10.8095 7.2939 10.7155 7.31178 10.6208 7.31086H10.6268ZM14.9296 7.31086C14.7878 7.31086 14.6492 7.2688 14.5312 7.18999C14.4133 7.11119 14.3214 6.99919 14.2671 6.86815C14.2128 6.73711 14.1986 6.59292 14.2263 6.4538C14.2539 6.31469 14.3222 6.18691 14.4225 6.08661C14.5228 5.98632 14.6506 5.91802 14.7897 5.89035C14.9288 5.86267 15.073 5.87688 15.2041 5.93115C15.3351 5.98543 15.4471 6.07735 15.5259 6.19529C15.6047 6.31322 15.6468 6.45187 15.6468 6.59371C15.6468 6.68839 15.628 6.78214 15.5916 6.86954C15.5552 6.95694 15.5019 7.03626 15.4346 7.10293C15.3674 7.1696 15.2876 7.2223 15.2 7.25799C15.1123 7.29368 15.0184 7.31165 14.9237 7.31086H14.9296Z" fill="url(#paint0_linear_9_45)"/>
<path d="M5.64771 11.2169L24.0001 17.5827L18.3534 17.2296C18.3534 18.9145 17.6841 20.5304 16.4927 21.7217C15.3013 22.9131 13.6854 23.5825 12.0006 23.5825C10.3157 23.5825 8.6998 22.9131 7.50841 21.7217C6.31702 20.5304 5.64771 18.9145 5.64771 17.2296V11.2169Z" fill="url(#paint1_linear_9_45)"/>
<defs>
<linearGradient id="paint0_linear_9_45" x1="-9.50882" y1="16.0724" x2="13.9077" y2="-8.20869" gradientUnits="userSpaceOnUse">
<stop stop-color="#E900A9"/>
<stop offset="0.13" stop-color="#E502AC"/>
<stop offset="0.27" stop-color="#D806B5"/>
<stop offset="0.42" stop-color="#C20EC5"/>
<stop offset="0.58" stop-color="#A318DA"/>
<stop offset="0.73" stop-color="#7D25F5"/>
<stop offset="0.78" stop-color="#6F2AFF"/>
</linearGradient>
<linearGradient id="paint1_linear_9_45" x1="-3.86646" y1="25.4684" x2="19.3519" y2="1.19656" gradientUnits="userSpaceOnUse">
<stop stop-color="#E900A9"/>
<stop offset="0.13" stop-color="#E502AC"/>
<stop offset="0.27" stop-color="#D806B5"/>
<stop offset="0.42" stop-color="#C20EC5"/>
<stop offset="0.58" stop-color="#A318DA"/>
<stop offset="0.73" stop-color="#7D25F5"/>
<stop offset="0.78" stop-color="#6F2AFF"/>
</linearGradient>
</defs>
</svg>
