<svg width="161" height="14" viewBox="0 0 161 14" fill="none" xmlns="http://www.w3.org/2000/svg">
<path d="M147.883 0.488586H160.915V8.45502H150.926V10.2452H160.915V13.2886H147.883V0.488586ZM150.926 5.41166H157.872V3.53194H150.926V5.41166Z" fill="white"/>
<path d="M133.599 0.488586H143.571L146.614 3.53194V13.2886H133.599V0.488586ZM143.571 10.2452V3.53194H136.643V10.2452H143.571Z" fill="white"/>
<path d="M132.348 13.2886H119.316V5.32215H129.305V3.53194H119.316V0.488586H132.348V13.2886ZM122.359 10.2452H129.305V8.36551H122.359V10.2452Z" fill="white"/>
<path d="M105.033 0.488586H118.048V5.23264H115.004V3.53194H108.076V10.2452H115.004V7.82845H118.048V13.2886H105.033V0.488586Z" fill="white"/>
<path d="M90.7498 0.488586H103.765V7.20187L101.974 8.72355L103.765 10.2452V13.2886H100.721V10.2452H93.7931V13.2886H90.7498V0.488586ZM100.721 7.20187V3.53194H93.7931V7.20187H100.721Z" fill="white"/>
<path d="M76.4663 0.488586H89.499V13.2886H86.4557V11.1403H80.6375V8.09698H86.4557V3.53194H79.5097V13.2886H76.4663V0.488586Z" fill="white"/>
<path d="M57.533 0.488586H60.5763V13.2886H57.533V0.488586ZM67.5044 5.01782V0.488586H70.5478V5.01782L68.7576 6.5395L70.5478 8.06117V13.2886H67.5044V8.06117H61.7042V5.01782H67.5044Z" fill="white"/>
<path d="M43.2495 0.488586H56.2643V7.20187L54.4741 8.72355L56.2643 10.2452V13.2886H53.221V10.2452H46.2929V13.2886H43.2495V0.488586ZM53.221 7.20187V3.53194H46.2929V7.20187H53.221Z" fill="white"/>
<path d="M41.999 13.2886H28.9663V5.32215H38.9557V3.53194H28.9663V0.488586H41.999V13.2886ZM32.0097 10.2452H38.9557V8.36551H32.0097V10.2452Z" fill="white"/>
<path d="M19.6957 3.53194H14.6831V0.488586H27.6979V3.53194H22.739V13.2886H19.6957V3.53194Z" fill="white"/>
<path d="M0.399902 0.488586H13.2894V3.53194H3.44326V5.35796H13.4147V13.2886H0.399902V10.2452H10.3714V8.40131H0.399902V0.488586Z" fill="white"/>
</svg>
