<svg width="131" height="32" viewBox="0 0 131 32" fill="none" xmlns="http://www.w3.org/2000/svg">
<g clip-path="url(#clip0_668_716)">
<path d="M69.1588 2.26151C68.0785 1.18089 66.7021 0.444944 65.2035 0.146753C63.7049 -0.151438 62.1515 0.00152437 60.7398 0.586304C59.3282 1.17108 58.1217 2.1614 57.273 3.43198C56.4242 4.70256 55.9714 6.19632 55.9717 7.7243L49.1057 7.29517L71.4203 15.1632V7.7243C71.4215 6.7097 71.2223 5.70486 70.8342 4.76742C70.4461 3.82998 69.8768 2.97839 69.1588 2.26151ZM62.0782 6.82098C61.906 6.82056 61.7378 6.76911 61.5948 6.67313C61.4519 6.57715 61.3405 6.44096 61.2749 6.28174C61.2093 6.12253 61.1924 5.94744 61.2262 5.7786C61.2601 5.60976 61.3432 5.45474 61.4651 5.33313C61.5871 5.21151 61.7423 5.12876 61.9112 5.09532C62.0801 5.06188 62.2552 5.07926 62.4142 5.14525C62.5733 5.21125 62.7092 5.3229 62.8048 5.4661C62.9005 5.60931 62.9515 5.77765 62.9515 5.94985C62.9515 6.06534 62.9286 6.17969 62.884 6.28622C62.8394 6.39276 62.7741 6.48937 62.6918 6.57043C62.6096 6.65149 62.512 6.7154 62.4048 6.75841C62.2976 6.80142 62.183 6.82269 62.0675 6.82098H62.0782ZM67.3093 6.82098C67.1371 6.82056 66.9689 6.76911 66.8259 6.67313C66.6829 6.57715 66.5716 6.44096 66.506 6.28174C66.4404 6.12253 66.4234 5.94744 66.4573 5.7786C66.4912 5.60976 66.5743 5.45474 66.6962 5.33313C66.8181 5.21151 66.9733 5.12876 67.1423 5.09532C67.3112 5.06188 67.4862 5.07926 67.6453 5.14525C67.8043 5.21125 67.9403 5.3229 68.0359 5.4661C68.1315 5.60931 68.1826 5.77765 68.1826 5.94985C68.1826 6.06534 68.1596 6.17969 68.115 6.28622C68.0704 6.39276 68.0051 6.48937 67.9229 6.57043C67.8406 6.65149 67.7431 6.7154 67.6359 6.75841C67.5287 6.80142 67.414 6.82269 67.2986 6.82098H67.3093Z" fill="url(#paint0_linear_668_716)"/>
<path d="M55.9717 11.5714L73.5916 17.6822V19.0168L71.4203 18.8816C71.4203 20.9302 70.6064 22.8949 69.1579 24.3435C67.7093 25.7921 65.7446 26.6059 63.696 26.6059C61.6474 26.6059 59.6827 25.7921 58.2341 24.3435C56.7855 22.8949 55.9717 20.9302 55.9717 18.8816V11.5714Z" fill="url(#paint1_linear_668_716)"/>
<path d="M18.8823 11.9919C18.3787 10.7889 17.6254 9.70657 16.6723 8.8164C15.6912 7.91292 14.5393 7.21477 13.2843 6.76302C11.9048 6.26789 10.4479 6.02302 8.98234 6.03994H0.730225V26.1617H8.92011C10.4039 26.1795 11.8786 25.9294 13.2736 25.4236C14.5351 24.9645 15.6916 24.2568 16.6744 23.3423C17.6256 22.4454 18.3784 21.3593 18.8844 20.1539C19.9208 17.5349 19.9208 14.6195 18.8844 12.0005L18.8823 11.9919ZM13.8379 19.1326C13.3639 19.9737 12.6548 20.6583 11.7974 21.1023C10.8259 21.587 9.75016 21.8258 8.66478 21.7975H5.66089V10.4042H8.66478C9.75016 10.3759 10.8259 10.6146 11.7974 11.0993C12.6553 11.5426 13.3646 12.2273 13.8379 13.069C14.3133 14.009 14.5609 15.0475 14.5609 16.1008C14.5609 17.1541 14.3133 18.1927 13.8379 19.1326Z" fill="white"/>
<path d="M36.8627 18.7936C36.8773 17.6559 36.6951 16.5242 36.3242 15.4486C35.9931 14.4959 35.4727 13.6201 34.7943 12.8738C34.1307 12.1551 33.3188 11.5892 32.4148 11.2152C31.4336 10.8187 30.3833 10.6217 29.3251 10.6359C28.2937 10.6263 27.2713 10.8286 26.3212 11.2303C25.4089 11.6177 24.5848 12.1863 23.8988 12.9017C23.203 13.629 22.655 14.4845 22.2853 15.4207C21.8902 16.4218 21.6928 17.49 21.7038 18.5662C21.6916 19.669 21.8836 20.7646 22.2702 21.7975C22.6281 22.7491 23.1781 23.6168 23.8859 24.3465C24.5836 25.0645 25.4232 25.6294 26.3512 26.0051C27.3424 26.4011 28.4016 26.5987 29.4688 26.5866C30.5025 26.5934 31.5291 26.4161 32.5006 26.063C33.413 25.7326 34.2546 25.2324 34.981 24.589C35.6795 23.97 36.227 23.1993 36.5816 22.3361L32.3569 21.2418C32.0356 21.6988 31.6144 22.0767 31.1253 22.3468C30.6293 22.599 30.0788 22.725 29.5225 22.7137C29.1545 22.7269 28.7874 22.6673 28.4425 22.5385C28.0975 22.4096 27.7813 22.2139 27.512 21.9627C26.9813 21.4635 26.6237 20.7483 26.4392 19.8171H36.867L36.8627 18.7936ZM26.4349 16.8625C26.6037 15.9743 26.9391 15.2891 27.4412 14.807C27.6913 14.5672 27.9867 14.3796 28.3102 14.2555C28.6337 14.1313 28.9788 14.073 29.3251 14.0839C29.663 14.0734 29.9995 14.1321 30.3139 14.2565C30.6283 14.3808 30.9139 14.5682 31.1532 14.807C31.6338 15.2876 31.9499 15.9728 32.1015 16.8625H26.4349Z" fill="white"/>
<path d="M49.1057 20.5509C48.9147 21.1032 48.5543 21.5812 48.0758 21.9168C47.5973 22.2523 47.0251 22.4283 46.4408 22.4197C45.8836 22.4293 45.338 22.2609 44.8831 21.9391C44.4149 21.5994 44.0478 21.1388 43.821 20.6067C43.5554 19.9898 43.4244 19.3235 43.4369 18.652C43.426 17.9697 43.5613 17.2929 43.8338 16.6673C44.0641 16.1253 44.4298 15.6517 44.8959 15.2919C45.3426 14.9617 45.8854 14.7876 46.4408 14.7963C46.9828 14.7886 47.5117 14.9632 47.9427 15.2919C48.3988 15.652 48.7513 16.1266 48.9641 16.6673L53.442 15.9313C53.2192 14.9031 52.7576 13.9417 52.0945 13.1248C51.4457 12.3328 50.6215 11.7025 49.6871 11.2839C48.6925 10.8434 47.6143 10.6238 46.5266 10.6402C45.471 10.6324 44.4248 10.8397 43.4519 11.2496C42.5149 11.6432 41.6701 12.2278 40.9716 12.9661C40.2656 13.7125 39.7079 14.5862 39.328 15.5408C38.9246 16.5594 38.7227 17.6466 38.7337 18.7421C38.7217 19.8142 38.9192 20.8784 39.3151 21.8747C39.6849 22.8033 40.2331 23.6503 40.9287 24.368C41.6197 25.0773 42.4494 25.6368 43.3661 26.0115C44.3333 26.4047 45.3689 26.6023 46.4129 26.593C47.2578 26.596 48.0983 26.4715 48.9061 26.2239C49.6781 25.9933 50.4041 25.6303 51.0518 25.1511C51.6803 24.6826 52.2263 24.1127 52.6674 23.4646C53.1126 22.8092 53.4253 22.073 53.5879 21.2976L49.1057 20.5509Z" fill="white"/>
<path d="M73.5917 19.0167V26.1617H78.2091V19.3107L73.5917 19.0167ZM73.5917 4.96283V17.6821L78.2091 19.2849V4.96283H73.5917Z" fill="white"/>
<path d="M92.0184 11.0565L91.9047 12.7858C91.4354 12.1084 90.801 11.5619 90.0616 11.1981C89.2774 10.8139 88.4137 10.6198 87.5405 10.6316C86.5956 10.623 85.6609 10.8261 84.8048 11.226C83.9664 11.6218 83.2152 12.1805 82.5948 12.8695C81.9562 13.5777 81.4562 14.3994 81.1207 15.2919C80.7641 16.2329 80.5844 17.2316 80.5907 18.2379C80.5844 19.2054 80.7575 20.1658 81.1014 21.0701C81.4283 21.9353 81.908 22.7347 82.5175 23.4303C83.104 24.107 83.8224 24.6568 84.6288 25.046C85.4377 25.4355 86.3251 25.6344 87.2229 25.6275C88.0895 25.6363 88.9467 25.4469 89.729 25.0739C90.4807 24.7183 91.1367 24.1887 91.6429 23.529V24.692C91.6561 25.3282 91.5202 25.9586 91.246 26.5329C90.9991 27.0434 90.6102 27.4718 90.1259 27.7666C89.6163 28.0669 89.033 28.2192 88.4416 28.2065C87.8989 28.217 87.3623 28.0901 86.8818 27.8375C86.4333 27.5964 86.0532 27.2458 85.7767 26.8183L81.243 27.7817C81.6146 28.6229 82.1542 29.3794 82.8286 30.0046C83.5349 30.6532 84.3636 31.1544 85.2661 31.4786C86.2657 31.8381 87.3215 32.0161 88.3837 32.0043C89.4785 32.0161 90.5658 31.8225 91.5893 31.4335C92.5208 31.0729 93.3686 30.5252 94.0804 29.8243C94.7865 29.1255 95.3371 28.2854 95.696 27.359C96.085 26.3416 96.2773 25.2597 96.2625 24.1706V11.0565H92.0184ZM91.2803 19.9115C91.0124 20.4162 90.6165 20.8416 90.1324 21.1452C89.6405 21.4415 89.0771 21.5981 88.5028 21.5981C87.9285 21.5981 87.3651 21.4415 86.8732 21.1452C86.3902 20.8409 85.9952 20.4156 85.7274 19.9115C85.4333 19.3585 85.2856 18.7396 85.2983 18.1134C85.2878 17.4957 85.4355 16.8856 85.7274 16.3411C85.9959 15.8381 86.3908 15.4136 86.8732 15.1096C87.3646 14.8119 87.9282 14.6545 88.5028 14.6545C89.0773 14.6545 89.6409 14.8119 90.1324 15.1096C90.6159 15.4129 91.0116 15.8375 91.2803 16.3411C91.5711 16.886 91.7187 17.4959 91.7094 18.1134C91.7192 18.74 91.5693 19.3588 91.2739 19.9115H91.2803Z" fill="white"/>
<path d="M113.805 18.7936C113.818 17.6555 113.633 16.5238 113.26 15.4486C112.928 14.4958 112.407 13.62 111.728 12.8738C111.065 12.1551 110.253 11.5892 109.349 11.2153C108.368 10.8185 107.317 10.6215 106.259 10.6359C105.228 10.6266 104.205 10.8289 103.255 11.2303C102.343 11.6183 101.519 12.1868 100.833 12.9017C100.136 13.6301 99.5869 14.4871 99.217 15.425C98.823 16.4264 98.6256 17.4944 98.6356 18.5705C98.623 19.6735 98.8158 20.7693 99.2042 21.8018C99.5612 22.7515 100.11 23.6177 100.816 24.3465C101.513 25.0645 102.353 25.6294 103.281 26.0051C104.272 26.4006 105.331 26.5982 106.398 26.5866C107.433 26.5932 108.46 26.4159 109.432 26.063C110.344 25.7326 111.185 25.2324 111.911 24.589C112.609 23.9695 113.157 23.199 113.513 22.3361L109.299 21.2418C108.977 21.699 108.555 22.0768 108.066 22.3468C107.57 22.5988 107.021 22.7248 106.465 22.7137C106.097 22.7271 105.729 22.6676 105.384 22.5387C105.039 22.4099 104.722 22.2141 104.452 21.9627C103.922 21.4635 103.564 20.7483 103.38 19.8171H113.81L113.805 18.7936ZM103.375 16.8626C103.546 15.9743 103.881 15.2891 104.382 14.807C104.632 14.5672 104.927 14.3797 105.251 14.2555C105.574 14.1313 105.919 14.073 106.265 14.084C106.603 14.0729 106.94 14.1314 107.255 14.2558C107.569 14.3801 107.855 14.5678 108.094 14.807C108.577 15.2877 108.894 15.9728 109.044 16.8626H103.375Z" fill="white"/>
<path d="M129.518 13.6484C129.117 12.7459 128.469 11.9753 127.649 11.4255C126.809 10.8855 125.826 10.6091 124.827 10.6316C123.917 10.6106 123.017 10.8328 122.22 11.2753C121.481 11.6934 120.866 12.2987 120.435 13.0304L120.294 11.0479H116.05V26.1531H120.663V17.5942C120.655 17.0964 120.772 16.6046 121.002 16.1631C121.216 15.7526 121.534 15.4056 121.924 15.1568C122.328 14.9066 122.795 14.7784 123.27 14.7877C123.593 14.7733 123.915 14.8367 124.208 14.9726C124.502 15.1085 124.758 15.313 124.956 15.5687C125.362 16.088 125.565 16.7917 125.565 17.68V26.1531H130.185V17.0363C130.213 15.8718 129.985 14.7153 129.518 13.6484Z" fill="white"/>
</g>
<defs>
<linearGradient id="paint0_linear_668_716" x1="37.5375" y1="17.4762" x2="66.022" y2="-12.0461" gradientUnits="userSpaceOnUse">
<stop stop-color="#E900A9"/>
<stop offset="0.13" stop-color="#E502AC"/>
<stop offset="0.27" stop-color="#D806B5"/>
<stop offset="0.42" stop-color="#C20EC5"/>
<stop offset="0.58" stop-color="#A318DA"/>
<stop offset="0.73" stop-color="#7D25F5"/>
<stop offset="0.78" stop-color="#6F2AFF"/>
</linearGradient>
<linearGradient id="paint1_linear_668_716" x1="46.8372" y1="28.8989" x2="74.5829" y2="5.99523" gradientUnits="userSpaceOnUse">
<stop stop-color="#E900A9"/>
<stop offset="0.13" stop-color="#E502AC"/>
<stop offset="0.27" stop-color="#D806B5"/>
<stop offset="0.42" stop-color="#C20EC5"/>
<stop offset="0.58" stop-color="#A318DA"/>
<stop offset="0.73" stop-color="#7D25F5"/>
<stop offset="0.78" stop-color="#6F2AFF"/>
</linearGradient>
<clipPath id="clip0_668_716">
<rect width="129.455" height="32" fill="white" transform="translate(0.730225)"/>
</clipPath>
</defs>
</svg>
