<svg width="101" height="100" viewBox="0 0 101 100" fill="none" xmlns="http://www.w3.org/2000/svg">
<path fill-rule="evenodd" clip-rule="evenodd" d="M0.5 50C0.5 77.615 22.885 100 50.5 100C78.115 100 100.5 77.615 100.5 50C100.5 22.385 78.115 0 50.5 0C22.885 0 0.5 22.385 0.5 50Z" fill="#0C0C4F"/>
<path fill-rule="evenodd" clip-rule="evenodd" d="M28.4403 38.225L29.6753 34.41C29.7993 34.0291 30.013 33.6836 30.2984 33.4025C30.5838 33.1215 30.9326 32.9131 31.3153 32.795L35.1503 31.615C35.6803 31.455 35.6853 30.705 35.1553 30.535L31.3403 29.3C30.9594 29.176 30.6139 28.9623 30.3329 28.6769C30.0518 28.3915 29.8434 28.0427 29.7253 27.66L28.5503 23.83C28.5144 23.7148 28.4429 23.6141 28.346 23.5422C28.2492 23.4703 28.1321 23.4309 28.0115 23.4298C27.8909 23.4287 27.773 23.4659 27.6749 23.536C27.5767 23.6061 27.5034 23.7055 27.4653 23.82L26.2353 27.635C26.1108 28.0164 25.8964 28.3623 25.6101 28.6434C25.3238 28.9245 24.974 29.1325 24.5903 29.25L20.7603 30.43C20.6445 30.4644 20.5428 30.5351 20.4701 30.6316C20.3974 30.7282 20.3576 30.8455 20.3565 30.9663C20.3554 31.0871 20.393 31.2051 20.4639 31.303C20.5348 31.4008 20.6352 31.4734 20.7503 31.51L24.5653 32.745C24.9462 32.869 25.2917 33.0827 25.5728 33.3681C25.8538 33.6535 26.0622 34.0022 26.1803 34.385L27.3603 38.215C27.3948 38.3308 27.4655 38.4325 27.562 38.5052C27.6585 38.5779 27.7758 38.6177 27.8966 38.6188C28.0175 38.6199 28.1355 38.5823 28.2333 38.5114C28.3312 38.4405 28.4037 38.3401 28.4403 38.225Z" fill="#FAFAFA"/>
<path fill-rule="evenodd" clip-rule="evenodd" d="M89.0099 36.005C87.4299 34.24 84.9599 33.245 82.5649 32.835C80.1332 32.4477 77.6538 32.4714 75.2299 32.905C70.4049 33.72 66.0199 35.72 62.1999 38.185C60.2099 39.395 58.5199 40.795 56.7649 42.22C55.9149 42.94 55.1499 43.71 54.3449 44.47L52.1549 46.645C49.9477 48.991 47.6089 51.2095 45.1499 53.29C42.8649 55.16 40.7349 56.58 38.6299 57.575C36.5299 58.575 34.2799 59.16 31.3499 59.255C28.4499 59.355 25.0099 58.83 21.3349 57.965C17.6349 57.105 13.7599 55.875 9.41992 54.82C10.9349 59.02 13.2149 62.73 16.1399 66.12C19.0999 69.45 22.7899 72.49 27.5399 74.485C32.6056 76.6362 38.2001 77.2179 43.5999 76.155C49.1149 75.095 53.9499 72.54 57.8599 69.59C61.5534 66.7517 64.8406 63.4207 67.6299 59.69C68.3649 58.71 68.7549 58.165 69.2899 57.405L70.7649 55.215C71.7949 53.865 72.7249 52.325 73.7399 50.985C75.7349 48.175 77.6949 45.375 79.9799 42.785C81.1299 41.48 82.3349 40.225 83.7649 39.02C84.4799 38.435 85.2499 37.86 86.0999 37.34C86.9699 36.78 87.8799 36.34 89.0099 36.005Z" fill="url(#paint0_linear_1934_2168)"/>
<path fill-rule="evenodd" clip-rule="evenodd" d="M89.0099 36.0001C87.3099 31.7201 84.1599 28.1151 79.9199 25.4551C75.171 22.5771 69.5207 21.57 64.0699 22.6301C61.2315 23.1861 58.5057 24.2118 56.0049 25.6651C53.6582 27.0467 51.486 28.7052 49.5349 30.6051C48.6204 31.5141 47.7414 32.4581 46.8999 33.4351L44.7099 36.2351L41.3199 40.7351C37.0049 46.5201 32.3549 53.3051 24.7299 55.3151C17.2399 57.2901 13.9899 55.5401 9.41992 54.8201C10.2549 56.9751 11.2899 59.0701 12.6949 60.9151C14.0749 62.7951 15.6949 64.5651 17.7199 66.0751C18.7449 66.8051 19.8199 67.5251 21.0199 68.1251C22.2149 68.7201 23.4999 69.2351 24.8749 69.6251C27.6049 70.3751 30.6799 70.6351 33.6599 70.2351C36.556 69.833 39.3657 68.9545 41.9749 67.6351C44.3461 66.4416 46.5737 64.9822 48.6149 63.2851C52.207 60.2618 55.3815 56.7746 58.0549 52.9151C59.3349 51.1117 60.5083 49.2917 61.5749 47.4551L62.8449 45.2701C63.2299 44.6351 63.6199 43.9901 64.0199 43.3951C65.6199 40.9951 67.1899 39.0701 69.0949 37.6251C70.9749 36.1401 73.5949 35.0451 77.0949 34.7901C80.5749 34.5351 84.5949 35.0101 89.0099 36.0051" fill="#FAFAFA"/>
<path fill-rule="evenodd" clip-rule="evenodd" d="M70.1749 71.585C70.1427 72.3529 70.2662 73.1195 70.5379 73.8385C70.8096 74.5575 71.2239 75.2141 71.7559 75.7689C72.2879 76.3236 72.9266 76.7651 73.6336 77.0666C74.3406 77.3682 75.1013 77.5237 75.8699 77.5237C76.6385 77.5237 77.3992 77.3682 78.1062 77.0666C78.8132 76.7651 79.452 76.3236 79.984 75.7689C80.516 75.2141 80.9303 74.5575 81.2019 73.8385C81.4736 73.1195 81.5971 72.3529 81.5649 71.585C81.5033 70.1158 80.8764 68.7274 79.8151 67.7096C78.7539 66.6919 77.3403 66.1237 75.8699 66.1237C74.3995 66.1237 72.986 66.6919 71.9247 67.7096C70.8634 68.7274 70.2365 70.1158 70.1749 71.585Z" fill="#EC796B"/>
<defs>
<linearGradient id="paint0_linear_1934_2168" x1="99.9599" y1="4.40002" x2="-91.7601" y2="59.68" gradientUnits="userSpaceOnUse">
<stop stop-color="#EC796B"/>
<stop offset="1" stop-color="#D672EF"/>
</linearGradient>
</defs>
</svg>
