<svg width="201" height="17" viewBox="0 0 201 17" fill="none" xmlns="http://www.w3.org/2000/svg">
<path d="M184.353 0.360718H200.644V10.3188H188.157V12.5565H200.644V16.3607H184.353V0.360718ZM188.157 6.51456H196.84V4.16491H188.157V6.51456Z" fill="white"/>
<path d="M166.499 0.360718H178.964L182.768 4.16491V16.3607H166.499V0.360718ZM178.964 12.5565V4.16491H170.303V12.5565H178.964Z" fill="white"/>
<path d="M164.936 16.3607H148.645V6.40268H161.131V4.16491H148.645V0.360718H164.936V16.3607ZM152.449 12.5565H161.131V10.2069H152.449V12.5565Z" fill="white"/>
<path d="M130.791 0.360718H147.06V6.29079H143.256V4.16491H134.595V12.5565H143.256V9.53554H147.06V16.3607H130.791V0.360718Z" fill="white"/>
<path d="M112.937 0.360718H129.206V8.75233L126.968 10.6544L129.206 12.5565V16.3607H125.402V12.5565H116.741V16.3607H112.937V0.360718ZM125.402 8.75233V4.16491H116.741V8.75233H125.402Z" fill="white"/>
<path d="M95.083 0.360718H111.374V16.3607H107.57V13.6754H100.297V9.87121H107.57V4.16491H98.8872V16.3607H95.083V0.360718Z" fill="white"/>
<path d="M71.4162 0.360718H75.2204V16.3607H71.4162V0.360718ZM83.8805 6.02226V0.360718H87.6847V6.02226L85.447 7.92435L87.6847 9.82645V16.3607H83.8805V9.82645H76.6302V6.02226H83.8805Z" fill="white"/>
<path d="M53.5621 0.360718H69.8306V8.75233L67.5928 10.6544L69.8306 12.5565V16.3607H66.0264V12.5565H57.3663V16.3607H53.5621V0.360718ZM66.0264 8.75233V4.16491H57.3663V8.75233H66.0264Z" fill="white"/>
<path d="M51.9989 16.3607H35.708V6.40268H48.1947V4.16491H35.708V0.360718H51.9989V16.3607ZM39.5122 12.5565H48.1947V10.2069H39.5122V12.5565Z" fill="white"/>
<path d="M24.1198 4.16491H17.8541V0.360718H34.1226V4.16491H27.924V16.3607H24.1198V4.16491Z" fill="white"/>
<path d="M0 0.360733H16.1119V4.16493H3.8042V6.44745H16.2685V16.3607H0V12.5565H12.4643V10.2516H0V0.360733Z" fill="white"/>
</svg>
