<svg width="40" height="41" viewBox="0 0 40 41" fill="none" xmlns="http://www.w3.org/2000/svg">
<path d="M27.27 13.83C25.94 13.21 24.5 12.76 23 12.5C22.9868 12.4996 22.9738 12.502 22.9617 12.5072C22.9496 12.5124 22.9388 12.5202 22.93 12.53C22.75 12.86 22.54 13.29 22.4 13.62C20.809 13.38 19.191 13.38 17.6 13.62C17.46 13.28 17.25 12.86 17.06 12.53C17.05 12.51 17.02 12.5 16.99 12.5C15.49 12.76 14.06 13.21 12.72 13.83C12.71 13.83 12.7 13.84 12.69 13.85C9.97 17.92 9.22 21.88 9.59 25.8C9.59 25.82 9.6 25.84 9.62 25.85C11.42 27.17 13.15 27.97 14.86 28.5C14.89 28.51 14.92 28.5 14.93 28.48C15.33 27.93 15.69 27.35 16 26.74C16.02 26.7 16 26.66 15.96 26.65C15.39 26.43 14.85 26.17 14.32 25.87C14.28 25.85 14.28 25.79 14.31 25.76C14.42 25.68 14.53 25.59 14.64 25.51C14.66 25.49 14.69 25.49 14.71 25.5C18.15 27.07 21.86 27.07 25.26 25.5C25.28 25.49 25.31 25.49 25.33 25.51C25.44 25.6 25.55 25.68 25.66 25.77C25.7 25.8 25.7 25.86 25.65 25.88C25.13 26.19 24.58 26.44 24.01 26.66C23.97 26.67 23.96 26.72 23.97 26.75C24.29 27.36 24.65 27.94 25.04 28.49C25.07 28.5 25.1 28.51 25.13 28.5C26.85 27.97 28.58 27.17 30.38 25.85C30.4 25.84 30.41 25.82 30.41 25.8C30.85 21.27 29.68 17.34 27.31 13.85C27.3 13.84 27.29 13.83 27.27 13.83ZM16.52 23.41C15.49 23.41 14.63 22.46 14.63 21.29C14.63 20.12 15.47 19.17 16.52 19.17C17.58 19.17 18.42 20.13 18.41 21.29C18.41 22.46 17.57 23.41 16.52 23.41ZM23.49 23.41C22.46 23.41 21.6 22.46 21.6 21.29C21.6 20.12 22.44 19.17 23.49 19.17C24.55 19.17 25.39 20.13 25.38 21.29C25.38 22.46 24.55 23.41 23.49 23.41Z" fill="currentColor"/>
</svg>
