<svg width="24" height="24" viewBox="0 0 24 24" fill="none" xmlns="http://www.w3.org/2000/svg">
<path fill-rule="evenodd" clip-rule="evenodd" d="M11.1133 0.81543C8.21379 0.81543 5.86328 3.16593 5.86328 6.06543C5.86328 8.96492 8.21379 11.3154 11.1133 11.3154C14.0128 11.3154 16.3633 8.96492 16.3633 6.06543C16.3633 3.16593 14.0128 0.81543 11.1133 0.81543Z" fill="white"/>
<path fill-rule="evenodd" clip-rule="evenodd" d="M19.6532 12.0901C19.1672 11.5395 18.4539 11.1904 17.6599 11.1904H15.7517C14.2837 11.1904 13.0938 12.3805 13.0938 13.8485V20.5267C13.0938 21.9948 14.2837 23.1848 15.7517 23.1848H17.6599C18.4539 23.1848 19.1672 22.8357 19.6532 22.2851C19.9273 21.9746 19.8977 21.5006 19.5872 21.2265C19.2766 20.9524 18.8028 20.982 18.5287 21.2925C18.3154 21.5342 18.0057 21.6848 17.6599 21.6848H15.7517C15.1122 21.6848 14.5938 21.1663 14.5938 20.5267V13.8485C14.5938 13.2089 15.1122 12.6904 15.7517 12.6904H17.6599C18.0057 12.6904 18.3154 12.841 18.5287 13.0827C18.8028 13.3932 19.2766 13.4228 19.5872 13.1487C19.8977 12.8746 19.9273 12.4006 19.6532 12.0901Z" fill="white"/>
<path fill-rule="evenodd" clip-rule="evenodd" d="M22.4972 16.6572C22.7901 16.9501 22.7901 17.4249 22.4972 17.7178L20.4972 19.7178C20.2043 20.0107 19.7294 20.0107 19.4365 19.7178C19.1436 19.4249 19.1436 18.9501 19.4365 18.6572L21.4365 16.6572C21.7294 16.3643 22.2043 16.3643 22.4972 16.6572Z" fill="white"/>
<path fill-rule="evenodd" clip-rule="evenodd" d="M22.4972 17.7178C22.7901 17.4249 22.7901 16.9501 22.4972 16.6572L20.4972 14.6572C20.2043 14.3643 19.7294 14.3643 19.4365 14.6572C19.1436 14.9501 19.1436 15.4249 19.4365 15.7178L21.4365 17.7178C21.7294 18.0107 22.2043 18.0107 22.4972 17.7178Z" fill="white"/>
<path fill-rule="evenodd" clip-rule="evenodd" d="M15.7168 17.1875C15.7168 16.7733 16.0525 16.4375 16.4668 16.4375H21.4668C21.881 16.4375 22.2168 16.7733 22.2168 17.1875C22.2168 17.6017 21.881 17.9375 21.4668 17.9375H16.4668C16.0525 17.9375 15.7168 17.6017 15.7168 17.1875Z" fill="white"/>
<path d="M11.607 13.4905C11.5969 13.6085 11.5918 13.7279 11.5918 13.8485V20.5267C11.5918 21.2725 11.7881 21.9724 12.1319 22.5776H3.02148C2.05499 22.5776 1.27148 21.7941 1.27148 20.8276V17.1557C1.27148 16.5426 1.60987 15.9796 2.15126 15.6919C5.10192 14.1239 8.3644 13.3901 11.607 13.4905Z" fill="white"/>
</svg>
