<svg width="40" height="40" viewBox="0 0 40 40" fill="none" xmlns="http://www.w3.org/2000/svg">
<g clip-path="url(#clip0_1659_1801)">
<path d="M35.3085 19.5898C35.2973 19.6141 35.2859 19.6383 35.2745 19.6626C34.8294 20.6098 33.4053 20.2337 33.493 19.1908C33.6534 17.2846 33.4176 15.3143 32.7308 13.3957C30.5014 7.16803 23.0163 0.0770149 16.3881 6.17922e-05C15.6803 -0.00814133 15.2739 0.802171 15.6916 1.37358C16.2486 2.1353 16.7009 2.99397 17.0211 3.93584C18.0722 7.02764 17.4251 10.3194 15.5744 12.765C14.8028 13.7845 13.1645 13.281 13.1376 12.0027C13.1373 11.9935 13.1372 11.9842 13.137 11.9749C13.1262 11.2972 13.2373 10.6466 13.4506 10.044C13.5447 9.77834 13.2984 9.51686 13.0285 9.59819C9.27093 10.7308 6.41366 16.2601 6.41366 20.2041C6.41366 20.4922 6.42968 20.7765 6.45944 21.0566C6.46312 21.5805 6.55163 22.1133 6.73671 22.6372C6.74335 22.6561 6.75007 22.6748 6.75679 22.6937C6.81444 22.8547 6.87569 23.0134 6.93866 23.1709C6.04874 22.083 5.29171 20.8821 4.69296 19.5927C4.41476 18.9937 3.53421 19.1126 3.42608 19.7642C3.23343 20.9247 3.13257 22.0565 3.13257 23.1326C3.13257 32.4482 10.6844 40 20 40C29.3156 40 36.8674 32.4482 36.8674 23.1326C36.8674 22.0565 36.7666 20.9245 36.5738 19.7639C36.4659 19.1138 35.5859 18.992 35.3085 19.5898Z" fill="url(#paint0_linear_1659_1801)"/>
<path d="M6.41366 20.2044C6.41366 20.4925 6.42968 20.7768 6.45944 21.0569C6.46312 21.5807 6.55163 22.1135 6.73671 22.6375C6.74335 22.6564 6.75007 22.6751 6.75679 22.6939C6.81444 22.8549 6.87569 23.0136 6.93866 23.1711C6.04874 22.0832 5.29171 20.8823 4.69296 19.5929C4.41476 18.9939 3.53421 19.1128 3.42608 19.7644C3.23343 20.9249 3.13257 22.0568 3.13257 23.1328C3.13249 32.4485 10.6843 40.0003 19.9999 40.0003C29.3155 40.0003 36.8673 32.4485 36.8673 23.1329C36.8673 22.0568 36.7665 20.9248 36.5737 19.7642C36.4658 19.1141 35.5858 18.9923 35.3083 19.5901C35.2971 19.6144 35.2858 19.6386 35.2744 19.6629C34.8292 20.6101 33.4051 20.234 33.4929 19.1911C33.53 18.7498 33.5448 18.305 33.5388 17.8584H6.70202C6.51405 18.6699 6.41366 19.465 6.41366 20.2044Z" fill="url(#paint1_linear_1659_1801)"/>
<path d="M6.41366 20.2044C6.41366 20.4925 6.42968 20.7768 6.45944 21.0569C6.46312 21.5807 6.55163 22.1135 6.73671 22.6375C6.74335 22.6564 6.75007 22.6751 6.75679 22.6939C6.81444 22.8549 6.87569 23.0136 6.93866 23.1711C6.04874 22.0832 5.29171 20.8823 4.69296 19.5929C4.41476 18.9939 3.53421 19.1128 3.42608 19.7644C3.23343 20.9249 3.13257 22.0568 3.13257 23.1328C3.13249 32.4485 10.6843 40.0003 19.9999 40.0003C29.3155 40.0003 36.8673 32.4485 36.8673 23.1329C36.8673 22.0568 36.7665 20.9248 36.5737 19.7642C36.4658 19.1141 35.5858 18.9923 35.3083 19.5901C35.2971 19.6144 35.2858 19.6386 35.2744 19.6629C34.8292 20.6101 33.4051 20.234 33.4929 19.1911C33.53 18.7498 33.5448 18.305 33.5388 17.8584H6.70202C6.51405 18.6699 6.41366 19.465 6.41366 20.2044Z" fill="url(#paint2_linear_1659_1801)"/>
<path d="M36.8674 23.1326C36.8674 22.0565 36.7665 20.9245 36.5738 19.7639C36.4658 19.1138 35.5858 18.992 35.3084 19.5898C35.2971 19.6141 35.2858 19.6383 35.2744 19.6626C34.8293 20.6098 33.4052 20.2337 33.4929 19.1908C33.6532 17.2846 33.4175 15.3143 32.7307 13.3957C30.5014 7.16803 23.0163 0.0770149 16.3881 6.17922e-05C15.6803 -0.00814133 15.2739 0.802171 15.6916 1.37366C16.2486 2.13537 16.7008 2.99405 17.0211 3.93592C18.0721 7.02772 17.4251 10.3194 15.5743 12.7651C15.1901 13.2727 14.5911 13.4026 14.083 13.2473V38.9319C15.9243 39.6218 17.9179 40 20 40C29.3156 40 36.8674 32.4482 36.8674 23.1326Z" fill="url(#paint3_linear_1659_1801)"/>
<path d="M35.582 29.5999L24.6168 18.6348L13.425 34.7249L18.646 39.9459C19.0927 39.9813 19.5441 40 20 40C27.0243 40 33.0448 35.7059 35.582 29.5999Z" fill="url(#paint4_linear_1659_1801)"/>
<path d="M28.5454 26.0087C28.5391 26.0223 28.5328 26.0358 28.5264 26.0493C28.278 26.5781 27.4831 26.3681 27.532 25.7859C27.6214 24.7219 27.4899 23.6221 27.1064 22.5511C25.862 19.0748 21.6838 15.1165 17.9838 15.0735C17.5887 15.0689 17.3619 15.5213 17.5951 15.8402C17.906 16.2655 18.1585 16.7448 18.3372 17.2706C18.9239 18.9964 18.5628 20.8339 17.5296 22.1991C17.0989 22.7682 16.1845 22.4871 16.1694 21.7735C16.1693 21.7684 16.1692 21.7632 16.1691 21.758C16.163 21.3797 16.2251 21.0165 16.3442 20.6802C16.3967 20.5319 16.2592 20.3859 16.1085 20.4313C14.011 21.0635 12.4161 24.15 12.4161 26.3516C12.4161 26.5123 12.4251 26.671 12.4417 26.8274C12.4437 27.1198 12.4931 27.4172 12.5964 27.7097C12.6002 27.7202 12.6038 27.7307 12.6076 27.7412C12.6398 27.8311 12.674 27.9196 12.7091 28.0076C12.2123 27.4003 11.7898 26.7299 11.4555 26.0102C11.3002 25.6758 10.8087 25.7423 10.7483 26.1059C10.6407 26.7538 10.5845 27.3856 10.5845 27.9862C10.5845 33.1863 14.7999 37.4017 20 37.4017C25.2001 37.4017 29.4156 33.1863 29.4156 27.9862C29.4156 27.3855 29.3592 26.7536 29.2517 26.1058C29.1915 25.743 28.7003 25.675 28.5454 26.0087Z" fill="url(#paint5_linear_1659_1801)"/>
<path d="M29.4157 27.9863C29.4157 27.3856 29.3594 26.7537 29.2518 26.1059C29.1916 25.743 28.7003 25.675 28.5455 26.0087C28.5391 26.0223 28.5329 26.0358 28.5265 26.0493C28.278 26.5781 27.4831 26.3681 27.532 25.7859C27.6215 24.7219 27.4899 23.6221 27.1065 22.5511C25.862 19.0748 21.6838 15.1165 17.9839 15.0735C17.5887 15.0689 17.362 15.5213 17.5952 15.8402C17.906 16.2655 18.1585 16.7448 18.3373 17.2706C18.924 18.9964 18.5628 20.8339 17.5297 22.1991C17.3152 22.4824 16.9809 22.5549 16.6973 22.4683V36.8056C17.7251 37.1906 18.8379 37.4018 20.0002 37.4018C25.2002 37.4018 29.4157 33.1863 29.4157 27.9863Z" fill="url(#paint6_linear_1659_1801)"/>
<path d="M12.4161 26.3518C12.4161 26.5126 12.4251 26.6713 12.4417 26.8277C12.4437 27.1201 12.4931 27.4175 12.5964 27.71C12.6002 27.7204 12.6038 27.731 12.6076 27.7415C12.6398 27.8314 12.674 27.9199 12.7091 28.0079C12.2123 27.4006 11.7898 26.7302 11.4555 26.0105C11.3002 25.6761 10.8087 25.7426 10.7483 26.1062C10.6407 26.754 10.5845 27.3858 10.5845 27.9865C10.5845 33.1865 14.7999 37.402 20 37.402C25.2001 37.402 29.4156 33.1865 29.4156 27.9865C29.4156 27.3858 29.3592 26.7539 29.2517 26.1061C29.1914 25.7432 28.7002 25.6752 28.5453 26.0089C28.539 26.0225 28.5328 26.036 28.5263 26.0495C28.2779 26.5783 27.483 26.3683 27.5319 25.7861C27.5526 25.5398 27.5609 25.2916 27.5575 25.0422H12.5771C12.4722 25.4953 12.4161 25.9391 12.4161 26.3518Z" fill="url(#paint7_linear_1659_1801)"/>
<path d="M12.4161 26.3518C12.4161 26.5126 12.4251 26.6713 12.4417 26.8277C12.4437 27.1201 12.4931 27.4175 12.5964 27.71C12.6002 27.7204 12.6038 27.731 12.6076 27.7415C12.6398 27.8314 12.674 27.9199 12.7091 28.0079C12.2123 27.4006 11.7898 26.7302 11.4555 26.0105C11.3002 25.6761 10.8087 25.7426 10.7483 26.1062C10.6407 26.754 10.5845 27.3858 10.5845 27.9865C10.5845 33.1865 14.7999 37.402 20 37.402C25.2001 37.402 29.4156 33.1865 29.4156 27.9865C29.4156 27.3858 29.3592 26.7539 29.2517 26.1061C29.1914 25.7432 28.7002 25.6752 28.5453 26.0089C28.539 26.0225 28.5328 26.036 28.5263 26.0495C28.2779 26.5783 27.483 26.3683 27.5319 25.7861C27.5526 25.5398 27.5609 25.2916 27.5575 25.0422H12.5771C12.4722 25.4953 12.4161 25.9391 12.4161 26.3518Z" fill="url(#paint8_linear_1659_1801)"/>
<path d="M4.93584 14.0092C6.16998 14.2623 7.15342 12.9931 6.66076 11.8336C6.29256 10.967 6.35037 9.93843 6.90576 9.09218C6.9067 9.09077 6.90763 9.08937 6.90849 9.08796C7.04888 8.87484 6.93677 8.58796 6.68779 8.53187C5.53732 8.27273 4.29607 8.73179 3.61076 9.77593C2.72763 11.1216 3.10256 12.9284 4.44818 13.8116C4.59888 13.9103 4.76334 13.9738 4.93584 14.0092Z" fill="url(#paint9_linear_1659_1801)"/>
<path d="M4.93584 14.0092C6.16998 14.2623 7.15342 12.9931 6.66076 11.8336C6.29256 10.967 6.35037 9.93843 6.90576 9.09218C6.9067 9.09077 6.90763 9.08937 6.90849 9.08796C7.04888 8.87484 6.93677 8.58796 6.68779 8.53187C5.53732 8.27273 4.29607 8.73179 3.61076 9.77593C2.72763 11.1216 3.10256 12.9284 4.44818 13.8116C4.59888 13.9103 4.76334 13.9738 4.93584 14.0092Z" fill="url(#paint10_linear_1659_1801)"/>
<path d="M4.93584 14.0092C6.16998 14.2623 7.15342 12.9931 6.66076 11.8336C6.29256 10.967 6.35037 9.93843 6.90576 9.09218C6.9067 9.09077 6.90763 9.08937 6.90849 9.08796C7.04888 8.87484 6.93677 8.58796 6.68779 8.53187C5.53732 8.27273 4.29607 8.73179 3.61076 9.77593C2.72763 11.1216 3.10256 12.9284 4.44818 13.8116C4.59888 13.9103 4.76334 13.9738 4.93584 14.0092Z" fill="url(#paint11_linear_1659_1801)"/>
</g>
<defs>
<linearGradient id="paint0_linear_1659_1801" x1="11.2606" y1="13.7951" x2="27.7587" y2="30.2932" gradientUnits="userSpaceOnUse">
<stop stop-color="#FFA1AE"/>
<stop offset="1" stop-color="#FF4565"/>
</linearGradient>
<linearGradient id="paint1_linear_1659_1801" x1="23.7583" y1="29.1331" x2="29.6061" y2="36.2061" gradientUnits="userSpaceOnUse">
<stop stop-color="#FE0364" stop-opacity="0"/>
<stop offset="0.2343" stop-color="#F90362" stop-opacity="0.234"/>
<stop offset="0.5173" stop-color="#EA035B" stop-opacity="0.517"/>
<stop offset="0.8243" stop-color="#D20250" stop-opacity="0.824"/>
<stop offset="1" stop-color="#C00148"/>
</linearGradient>
<linearGradient id="paint2_linear_1659_1801" x1="19.47" y1="28.8489" x2="18.4119" y2="40.3216" gradientUnits="userSpaceOnUse">
<stop stop-color="#FE0364" stop-opacity="0"/>
<stop offset="0.2343" stop-color="#F90362" stop-opacity="0.234"/>
<stop offset="0.5173" stop-color="#EA035B" stop-opacity="0.517"/>
<stop offset="0.8243" stop-color="#D20250" stop-opacity="0.824"/>
<stop offset="1" stop-color="#C00148"/>
</linearGradient>
<linearGradient id="paint3_linear_1659_1801" x1="24.1396" y1="18.0773" x2="34.61" y2="13.2877" gradientUnits="userSpaceOnUse">
<stop stop-color="#FE0364" stop-opacity="0"/>
<stop offset="0.2343" stop-color="#F90362" stop-opacity="0.234"/>
<stop offset="0.5173" stop-color="#EA035B" stop-opacity="0.517"/>
<stop offset="0.8243" stop-color="#D20250" stop-opacity="0.824"/>
<stop offset="1" stop-color="#C00148"/>
</linearGradient>
<linearGradient id="paint4_linear_1659_1801" x1="32.6779" y1="37.4551" x2="19.8685" y2="27.9873" gradientUnits="userSpaceOnUse">
<stop stop-color="#FE0364" stop-opacity="0"/>
<stop offset="0.2343" stop-color="#F90362" stop-opacity="0.234"/>
<stop offset="0.5173" stop-color="#EA035B" stop-opacity="0.517"/>
<stop offset="0.8243" stop-color="#D20250" stop-opacity="0.824"/>
<stop offset="1" stop-color="#C00148"/>
</linearGradient>
<linearGradient id="paint5_linear_1659_1801" x1="16.1332" y1="23.3452" x2="23.7074" y2="32.1446" gradientUnits="userSpaceOnUse">
<stop stop-color="#FEF0AE"/>
<stop offset="1" stop-color="#FAC600"/>
</linearGradient>
<linearGradient id="paint6_linear_1659_1801" x1="24.2899" y1="24.6576" x2="26.8518" y2="23.7665" gradientUnits="userSpaceOnUse">
<stop stop-color="#FE9738" stop-opacity="0"/>
<stop offset="1" stop-color="#FE9738"/>
</linearGradient>
<linearGradient id="paint7_linear_1659_1801" x1="17.3856" y1="32.7386" x2="15.4921" y2="35.8204" gradientUnits="userSpaceOnUse">
<stop stop-color="#FE9738" stop-opacity="0"/>
<stop offset="1" stop-color="#FE9738"/>
</linearGradient>
<linearGradient id="paint8_linear_1659_1801" x1="22.2553" y1="33.0497" x2="23.7404" y2="36.2057" gradientUnits="userSpaceOnUse">
<stop stop-color="#FE9738" stop-opacity="0"/>
<stop offset="1" stop-color="#FE9738"/>
</linearGradient>
<linearGradient id="paint9_linear_1659_1801" x1="3.96873" y1="9.81694" x2="7.4217" y2="12.713" gradientUnits="userSpaceOnUse">
<stop stop-color="#FFA1AE"/>
<stop offset="1" stop-color="#FF4565"/>
</linearGradient>
<linearGradient id="paint10_linear_1659_1801" x1="4.88857" y1="11.9848" x2="4.10881" y2="14.0176" gradientUnits="userSpaceOnUse">
<stop stop-color="#FE0364" stop-opacity="0"/>
<stop offset="0.2343" stop-color="#F90362" stop-opacity="0.234"/>
<stop offset="0.5173" stop-color="#EA035B" stop-opacity="0.517"/>
<stop offset="0.8243" stop-color="#D20250" stop-opacity="0.824"/>
<stop offset="1" stop-color="#C00148"/>
</linearGradient>
<linearGradient id="paint11_linear_1659_1801" x1="4.86857" y1="10.9932" x2="7.40256" y2="11.7451" gradientUnits="userSpaceOnUse">
<stop stop-color="#FE0364" stop-opacity="0"/>
<stop offset="0.2343" stop-color="#F90362" stop-opacity="0.234"/>
<stop offset="0.5173" stop-color="#EA035B" stop-opacity="0.517"/>
<stop offset="0.8243" stop-color="#D20250" stop-opacity="0.824"/>
<stop offset="1" stop-color="#C00148"/>
</linearGradient>
<clipPath id="clip0_1659_1801">
<rect width="40" height="40" fill="white"/>
</clipPath>
</defs>
</svg>
