<svg width="24" height="25" viewBox="0 0 24 25" fill="none" xmlns="http://www.w3.org/2000/svg">
<path opacity="0.5" d="M15.9998 2.5L14.9998 2.5C12.1714 2.5 10.7576 2.50023 9.87891 3.37891C9.00023 4.25759 9.00023 5.6718 9.00023 8.50023L9.00023 16.5002C9.00023 19.3287 9.00023 20.7429 9.87891 21.6215C10.7574 22.5 12.1706 22.5 14.9976 22.5L14.9998 22.5L15.9998 22.5C18.8282 22.5 20.2424 22.5 21.1211 21.6213C21.9998 20.7426 21.9998 19.3284 21.9998 16.5L21.9998 8.5L21.9998 8.49998C21.9998 5.67157 21.9998 4.25736 21.1211 3.37868C20.2424 2.5 18.8282 2.5 15.9998 2.5Z" fill="#D4D4D8"/>
<path fill-rule="evenodd" clip-rule="evenodd" d="M1.25098 12.499C1.25098 12.0848 1.58676 11.749 2.00098 11.749L13.9735 11.749L12.0129 10.0685C11.6984 9.79889 11.662 9.32541 11.9315 9.01092C12.2011 8.69642 12.6746 8.66 12.9891 8.92957L16.4891 11.9296C16.6553 12.0721 16.751 12.2801 16.751 12.499C16.751 12.718 16.6553 12.926 16.4891 13.0685L12.9891 16.0685C12.6746 16.338 12.2011 16.3016 11.9315 15.9871C11.662 15.6726 11.6984 15.1991 12.0129 14.9296L13.9735 13.249L2.00098 13.249C1.58676 13.249 1.25098 12.9132 1.25098 12.499Z" fill="#D4D4D8"/>
</svg>
