<svg width="24" height="25" viewBox="0 0 24 25" fill="none" xmlns="http://www.w3.org/2000/svg">
<path d="M15.962 14.643C16.0223 14.6732 16.0882 14.6908 16.1555 14.6949C16.2229 14.699 16.2903 14.6893 16.3539 14.6666C16.4174 14.6439 16.4757 14.6086 16.5252 14.5628C16.5747 14.517 16.6144 14.4616 16.642 14.4L20.835 4.99802C21.502 3.50202 20.02 1.95102 18.633 2.69202L12.729 5.84402C12.269 6.08902 11.729 6.08902 11.27 5.84402L5.366 2.69201C3.979 1.95101 2.497 3.50201 3.164 4.99801L4.736 8.52201C4.9244 8.94513 5.25381 9.28973 5.668 9.49701L15.962 14.643Z" fill="#FAFAFA"/>
<path opacity="0.5" d="M15.389 16.034C15.5042 16.0914 15.5928 16.191 15.6363 16.3121C15.6799 16.4332 15.6752 16.5664 15.623 16.684L13.472 21.507C12.882 22.831 11.117 22.831 10.527 21.507L6.55903 12.609C6.5174 12.5149 6.50578 12.4103 6.52578 12.3094C6.54577 12.2085 6.5964 12.1163 6.67075 12.0452C6.74511 11.9741 6.83957 11.9277 6.94127 11.9123C7.04297 11.8969 7.14694 11.9132 7.23903 11.959L15.389 16.034Z" fill="#FAFAFA"/>
</svg>
