<svg width="24" height="24" viewBox="0 0 24 24" fill="none" xmlns="http://www.w3.org/2000/svg">
<path d="M10.7018 17.7018C10.5263 17.9006 10.2924 18 10 18C9.73099 18 9.49708 17.9006 9.29825 17.7018C9.09942 17.5029 9 17.269 9 17C9 16.7076 9.09942 16.4737 9.29825 16.2982L14.193 11.4035C14.2515 11.345 14.2924 11.4327 14.3158 11.6667C14.3392 11.8889 14.3392 12.117 14.3158 12.3509C14.2924 12.5731 14.2515 12.655 14.193 12.5965L9.29825 7.70175C9.09942 7.51462 9 7.2807 9 7C9 6.7193 9.09942 6.48538 9.29825 6.29825C9.49708 6.09942 9.73099 6 10 6C10.2924 6 10.5263 6.09942 10.7018 6.29825L15.5965 11.193C15.8187 11.4035 15.9298 11.6725 15.9298 12C15.9298 12.3158 15.8187 12.5848 15.5965 12.807L10.7018 17.7018Z" fill="currentColor"/>
</svg>
