<svg width="80" height="80" viewBox="0 0 80 80" fill="none" xmlns="http://www.w3.org/2000/svg">
<path d="M4.30994 42.3567L17.6433 55.69C17.9508 56.0084 18.3186 56.2623 18.7253 56.437C19.1319 56.6117 19.5693 56.7036 20.0119 56.7075C20.4545 56.7113 20.8935 56.627 21.3031 56.4594C21.7128 56.2918 22.0849 56.0443 22.3979 55.7313C22.7109 55.4183 22.9584 55.0462 23.126 54.6365C23.2936 54.2268 23.378 53.7879 23.3741 53.3453C23.3703 52.9027 23.2783 52.4653 23.1036 52.0586C22.9289 51.652 22.675 51.2841 22.3566 50.9767L11.3799 40L22.3566 29.0233C22.675 28.7158 22.9289 28.348 23.1036 27.9413C23.2783 27.5347 23.3703 27.0973 23.3741 26.6547C23.378 26.2121 23.2936 25.7731 23.126 25.3635C22.9584 24.9538 22.7109 24.5816 22.3979 24.2687C22.0849 23.9557 21.7128 23.7082 21.3031 23.5406C20.8935 23.373 20.4545 23.2886 20.0119 23.2925C19.5693 23.2963 19.1319 23.3883 18.7253 23.563C18.3186 23.7377 17.9508 23.9916 17.6433 24.31L4.30994 37.6433C3.68504 38.2684 3.33398 39.1161 3.33398 40C3.33398 40.8839 3.68504 41.7316 4.30994 42.3567Z" fill="#FAA632"/>
<path d="M62.3565 24.31C62.049 23.9916 61.6811 23.7377 61.2745 23.563C60.8678 23.3883 60.4304 23.2963 59.9878 23.2925C59.5452 23.2886 59.1063 23.373 58.6966 23.5406C58.287 23.7082 57.9148 23.9557 57.6018 24.2687C57.2888 24.5816 57.0413 24.9538 56.8737 25.3635C56.7061 25.7731 56.6218 26.2121 56.6256 26.6547C56.6295 27.0973 56.7214 27.5347 56.8961 27.9413C57.0708 28.348 57.3247 28.7158 57.6431 29.0233L68.6198 40L57.6431 50.9767C57.3247 51.2841 57.0708 51.652 56.8961 52.0586C56.7214 52.4653 56.6295 52.9027 56.6256 53.3453C56.6218 53.7879 56.7061 54.2268 56.8737 54.6365C57.0413 55.0462 57.2888 55.4183 57.6018 55.7313C57.9148 56.0443 58.287 56.2918 58.6966 56.4594C59.1063 56.627 59.5452 56.7113 59.9878 56.7075C60.4304 56.7036 60.8678 56.6117 61.2745 56.437C61.6811 56.2623 62.049 56.0084 62.3565 55.69L75.6898 42.3567C76.3147 41.7316 76.6657 40.8839 76.6657 40C76.6657 39.1161 76.3147 38.2684 75.6898 37.6433L62.3565 24.31Z" fill="#FAA632"/>
<path d="M43.4635 15.7533L30.1302 62.42C29.8875 63.2696 29.992 64.1807 30.4208 64.9533C30.8495 65.7258 31.5675 66.2966 32.4169 66.54C32.7155 66.6225 33.0237 66.6651 33.3335 66.6667C34.0579 66.6661 34.7624 66.4297 35.3404 65.993C35.9184 65.5564 36.3384 64.9433 36.5369 64.2467L49.8702 17.58C50.0092 17.1538 50.0608 16.704 50.0219 16.2575C49.983 15.8109 49.8544 15.3768 49.6439 14.981C49.4334 14.5853 49.1452 14.2361 48.7966 13.9543C48.448 13.6725 48.0462 13.4639 47.6151 13.341C47.184 13.2181 46.7326 13.1834 46.2878 13.239C45.843 13.2946 45.414 13.4393 45.0264 13.6645C44.6388 13.8897 44.3007 14.1908 44.0321 14.5497C43.7636 14.9086 43.5702 15.318 43.4635 15.7533Z" fill="#FAA632"/>
</svg>
