<svg width="25" height="24" viewBox="0 0 25 24" fill="none" xmlns="http://www.w3.org/2000/svg">
<path d="M1.20752 9.75V16.5377C1.20752 18.588 2.86957 20.25 4.91983 20.25C5.90439 20.25 6.84864 19.8589 7.54483 19.1627L11.0862 15.6213C11.484 15.2235 11.7075 14.6839 11.7075 14.1213V9.75H1.20752Z" fill="#A5C3DC"/>
<path d="M23.7075 9.75V16.5377C23.7075 18.588 22.0455 20.25 19.9952 20.25C19.0106 20.25 18.0664 19.8589 17.3702 19.1627L13.8288 15.6213C13.431 15.2235 13.2075 14.6839 13.2075 14.1213V9.75H23.7075Z" fill="#A5C3DC"/>
<path d="M18.4575 4.5H6.45752C3.55802 4.5 1.20752 6.8505 1.20752 9.75V15.568C1.20752 17.3254 2.63214 18.75 4.38949 18.75C5.23338 18.75 6.04277 18.4148 6.63949 17.818L8.83619 15.6213C8.83802 15.6195 8.8398 15.6177 8.84163 15.6159C9.22586 15.2288 9.74107 15 10.2865 15H14.6286C15.174 15 15.6892 15.2288 16.0735 15.6159C16.0753 15.6177 16.0771 15.6195 16.0789 15.6213L18.2756 17.818C18.8723 18.4148 19.6817 18.75 20.5256 18.75C22.2829 18.75 23.7076 17.3254 23.7076 15.568V9.75C23.7075 6.8505 21.357 4.5 18.4575 4.5Z" fill="#D7E6F0"/>
<path d="M14.167 6.75H10.7481C10.4253 6.75 10.1387 6.54342 10.0366 6.23719L9.45752 4.5H15.4575L14.8785 6.23719C14.7764 6.54342 14.4898 6.75 14.167 6.75Z" fill="#A5C3DC"/>
<path d="M9.45752 14.25C10.4931 14.25 11.3325 13.4105 11.3325 12.375C11.3325 11.3395 10.4931 10.5 9.45752 10.5C8.42199 10.5 7.58252 11.3395 7.58252 12.375C7.58252 13.4105 8.42199 14.25 9.45752 14.25Z" fill="#A5C3DC"/>
<path d="M10.5825 11.8125H10.02V11.25C10.02 11.0429 9.85211 10.875 9.64502 10.875H9.27002C9.06293 10.875 8.89502 11.0429 8.89502 11.25V11.8125H8.33252C8.12543 11.8125 7.95752 11.9804 7.95752 12.1875V12.5625C7.95752 12.7696 8.12543 12.9375 8.33252 12.9375H8.89502V13.5C8.89502 13.7071 9.06293 13.875 9.27002 13.875H9.64502C9.85211 13.875 10.02 13.7071 10.02 13.5V12.9375H10.5825C10.7896 12.9375 10.9575 12.7696 10.9575 12.5625V12.1875C10.9575 11.9804 10.7896 11.8125 10.5825 11.8125Z" fill="#555A6E"/>
<path d="M15.4575 14.25C16.4931 14.25 17.3325 13.4105 17.3325 12.375C17.3325 11.3395 16.4931 10.5 15.4575 10.5C14.422 10.5 13.5825 11.3395 13.5825 12.375C13.5825 13.4105 14.422 14.25 15.4575 14.25Z" fill="#463C4B"/>
<path d="M15.4575 13.5C16.0788 13.5 16.5825 12.9963 16.5825 12.375C16.5825 11.7537 16.0788 11.25 15.4575 11.25C14.8362 11.25 14.3325 11.7537 14.3325 12.375C14.3325 12.9963 14.8362 13.5 15.4575 13.5Z" fill="#555A6E"/>
<path d="M5.70752 10.75C6.74305 10.75 7.58252 9.9105 7.58252 8.87497C7.58252 7.83944 6.74305 6.99997 5.70752 6.99997C4.67199 6.99997 3.83252 7.83944 3.83252 8.87497C3.83252 9.9105 4.67199 10.75 5.70752 10.75Z" fill="#463C4B"/>
<path d="M5.70752 9.99997C6.32884 9.99997 6.83252 9.49629 6.83252 8.87497C6.83252 8.25365 6.32884 7.74997 5.70752 7.74997C5.0862 7.74997 4.58252 8.25365 4.58252 8.87497C4.58252 9.49629 5.0862 9.99997 5.70752 9.99997Z" fill="#555A6E"/>
<path d="M19.2075 8.00003C19.6217 8.00003 19.9575 7.66424 19.9575 7.25003C19.9575 6.83582 19.6217 6.50003 19.2075 6.50003C18.7933 6.50003 18.4575 6.83582 18.4575 7.25003C18.4575 7.66424 18.7933 8.00003 19.2075 8.00003Z" fill="#00D2D2"/>
<path d="M19.2075 11C19.6217 11 19.9575 10.6642 19.9575 10.25C19.9575 9.83582 19.6217 9.50003 19.2075 9.50003C18.7933 9.50003 18.4575 9.83582 18.4575 10.25C18.4575 10.6642 18.7933 11 19.2075 11Z" fill="#00D2D2"/>
<path d="M17.7075 9.50003C18.1217 9.50003 18.4575 9.16424 18.4575 8.75003C18.4575 8.33582 18.1217 8.00003 17.7075 8.00003C17.2933 8.00003 16.9575 8.33582 16.9575 8.75003C16.9575 9.16424 17.2933 9.50003 17.7075 9.50003Z" fill="#FF6E91"/>
<path d="M20.7075 9.50003C21.1217 9.50003 21.4575 9.16424 21.4575 8.75003C21.4575 8.33582 21.1217 8.00003 20.7075 8.00003C20.2933 8.00003 19.9575 8.33582 19.9575 8.75003C19.9575 9.16424 20.2933 9.50003 20.7075 9.50003Z" fill="#FF6E91"/>
<path d="M10.9575 9.375C11.3717 9.375 11.7075 9.03921 11.7075 8.625C11.7075 8.21079 11.3717 7.875 10.9575 7.875C10.5433 7.875 10.2075 8.21079 10.2075 8.625C10.2075 9.03921 10.5433 9.375 10.9575 9.375Z" fill="#A5C3DC"/>
<path d="M13.9575 9.375C14.3717 9.375 14.7075 9.03921 14.7075 8.625C14.7075 8.21079 14.3717 7.875 13.9575 7.875C13.5433 7.875 13.2075 8.21079 13.2075 8.625C13.2075 9.03921 13.5433 9.375 13.9575 9.375Z" fill="#A5C3DC"/>
<path d="M8.70752 3.75H7.20752C6.79329 3.75 6.45752 4.08577 6.45752 4.5H9.45752C9.45752 4.08577 9.12175 3.75 8.70752 3.75Z" fill="#555A6E"/>
<path d="M17.7075 3.75H16.2075C15.7933 3.75 15.4575 4.08577 15.4575 4.5H18.4575C18.4575 4.08577 18.1218 3.75 17.7075 3.75Z" fill="#555A6E"/>
</svg>
