<svg width="25" height="25" viewBox="0 0 25 25" fill="none" xmlns="http://www.w3.org/2000/svg">
<g clip-path="url(#clip0_9840_30229)">
<path d="M22.4831 15.41C22.1529 15.41 21.8854 15.6775 21.8854 16.0077V21.3148C21.8842 22.3048 21.0822 23.1071 20.0922 23.108H3.32065C2.33067 23.1071 1.52865 22.3048 1.52748 21.3148V5.73874C1.52865 4.749 2.33067 3.94674 3.32065 3.94557H8.62779C8.95794 3.94557 9.22552 3.678 9.22552 3.34785C9.22552 3.01793 8.95794 2.75012 8.62779 2.75012H3.32065C1.67084 2.75199 0.333899 4.08893 0.332031 5.73874V21.3151C0.333899 22.9649 1.67084 24.3018 3.32065 24.3037H20.0922C21.742 24.3018 23.0789 22.9649 23.0808 21.3151V16.0077C23.0808 15.6775 22.8132 15.41 22.4831 15.41Z" fill="currentColor"/>
<path d="M22.846 1.21216C21.7956 0.161703 20.0925 0.161703 19.0421 1.21216L8.37831 11.8759C8.30523 11.949 8.25246 12.0396 8.22491 12.1391L6.82259 17.2017C6.76492 17.4093 6.82353 17.6316 6.97576 17.7841C7.12823 17.9363 7.3505 17.9949 7.55807 17.9375L12.6208 16.5349C12.7202 16.5074 12.8108 16.4546 12.8839 16.3815L23.5474 5.7175C24.5963 4.66635 24.5963 2.9647 23.5474 1.91355L22.846 1.21216ZM9.6807 12.2645L18.4082 3.53674L21.2228 6.35142L12.4951 15.0791L9.6807 12.2645ZM9.11846 13.3927L11.3672 15.6416L8.25666 16.5034L9.11846 13.3927ZM22.7022 4.87228L22.0683 5.5062L19.2534 2.69129L19.8875 2.05738C20.471 1.47389 21.4171 1.47389 22.0006 2.05738L22.7022 2.75877C23.2848 3.34295 23.2848 4.28834 22.7022 4.87228Z" fill="currentColor"/>
</g>
<defs>
<clipPath id="clip0_9840_30229">
<rect width="24" height="24" fill="white" transform="translate(0.332031 0.333252)"/>
</clipPath>
</defs>
</svg>
