<svg width="40" height="40" viewBox="0 0 40 40" fill="none" xmlns="http://www.w3.org/2000/svg">
<path opacity="0.5" fill-rule="evenodd" clip-rule="evenodd" d="M23.3334 36.6666H16.6667C10.3817 36.6666 7.23837 36.6666 5.28671 34.7132C3.33337 32.7616 3.33337 29.6183 3.33337 23.3333V16.6666C3.33337 10.3816 3.33337 7.23825 5.28671 5.28659C7.23837 3.33325 10.3984 3.33325 16.7167 3.33325C17.7267 3.33325 18.535 3.33325 19.2167 3.36159C19.195 3.49492 19.1834 3.62992 19.1834 3.76825L19.1667 8.49158C19.1667 10.3199 19.1667 11.9366 19.3417 13.2383C19.5317 14.6499 19.9667 16.0616 21.12 17.2149C22.27 18.3649 23.6834 18.8016 25.095 18.9916C26.3967 19.1666 28.0134 19.1666 29.8417 19.1666H36.595C36.6667 20.0566 36.6667 21.1499 36.6667 22.6049V23.3333C36.6667 29.6183 36.6667 32.7616 34.7134 34.7132C32.7617 36.6666 29.6184 36.6666 23.3334 36.6666Z" fill="#A1A1AA"/>
<path d="M19.1833 3.76655L19.1666 8.49155C19.1666 10.3199 19.1666 11.9349 19.3416 13.2382C19.5316 14.6499 19.9666 16.0616 21.12 17.2132C22.27 18.3649 23.6833 18.8016 25.095 18.9916C26.3966 19.1666 28.0133 19.1666 29.8416 19.1666H36.595C36.6166 19.4249 36.6316 19.7016 36.6416 19.9999H36.6666C36.6666 19.5532 36.6666 19.3299 36.65 19.0666C36.5216 17.4828 35.9702 15.9626 35.0533 14.6649C34.8966 14.4516 34.79 14.3249 34.5783 14.0699C33.2566 12.4899 31.5166 10.5199 30 9.16655C28.65 7.95989 26.7983 6.64155 25.1833 5.56489C23.7966 4.63822 23.1033 4.17489 22.1516 3.83155C21.8748 3.73249 21.5934 3.64684 21.3083 3.57489C20.6683 3.41655 20.045 3.36155 19.1666 3.34155L19.1833 3.76655Z" fill="#A1A1AA"/>
</svg>
