<svg width="40" height="40" viewBox="0 0 40 40" fill="none" xmlns="http://www.w3.org/2000/svg">
<g clip-path="url(#clip0_1659_1886)">
<path d="M20 11.714V20H17.2379V22.762H11.714V20H8.95264V11.714H11.714V8.95264H17.2379V11.714H20Z" fill="white"/>
<path d="M17.24 11.7134V8.95337H11.7134V11.7134H8.95337V20H11.7134V22.76H17.24V20H20V11.7134H17.24Z" fill="white"/>
<path d="M36.5733 11.7134V20H33.8066V22.76H28.2866V20H25.5266V11.7134H28.2866V8.95337H33.8066V11.7134H36.5733Z" fill="white"/>
<path d="M17.2379 17.2379H11.7139V22.7619H17.2379V17.2379Z" fill="#336A93"/>
<path d="M33.8106 17.2379H28.2866V22.7619H33.8106V17.2379Z" fill="#336A93"/>
<path d="M20 11.714V20H17.2379V22.762H11.714V20H8.95264V11.714H11.714V8.95264H17.2379V11.714H20Z" fill="white"/>
<path d="M17.24 11.7134V8.95337H11.7134V11.7134H8.95337V20H11.7134V22.76H17.24V20H20V11.7134H17.24Z" fill="white"/>
<path d="M36.5733 8.95337H33.8066V11.7134H36.5733V8.95337Z" fill="#A4C2F7"/>
<path d="M36.5733 11.7134V20H33.8066V22.76H28.2866V20H25.5266V11.7134H28.2866V8.95337H33.8066V11.7134H36.5733Z" fill="white"/>
<path d="M6.28662 36.5733V39.3333H8.95326V36.5733H6.28662ZM14.5733 17.24V20H17.24V17.24H14.5733ZM9.04662 33.8066V36.5733H11.7133V33.8066H9.04662ZM20.0933 36.5733V39.3333H22.76V36.5733H20.0933ZM22.86 33.8066V36.5733H25.5266V33.8066H22.86ZM25.62 0.666626V3.42663H28.2866V0.666626H25.62ZM28.38 3.42663V6.19327H31.0466V3.42663H28.38ZM31.14 6.19335V8.95334H33.8066V6.19335H31.14ZM31.14 17.24V20H33.8066V17.24H31.14ZM33.9066 36.5733V39.3333H36.5733V36.5733H33.9066ZM36.6666 14.4733V36.5733H39.3333V14.4733H36.6666Z" fill="#A4C2F7"/>
<path d="M14.5732 17.24V20H17.2399V17.24H14.5732ZM14.5732 17.24V20H17.2399V17.24H14.5732Z" fill="#E3E7F2"/>
<path d="M36.575 14.4733V20H31.2423V17.24H28.4418V20H25.7329V11.7133H28.4418V8.95334H31.2423V6.19335H28.5334V3.42663H25.8245V0.666626H12.1754V3.42663H9.46645V6.19327H6.75755V8.95327H4.04216V14.4733H1.33325V36.5733H4.04216V39.3333H6.84919V36.5733H9.5581V33.8066H14.8843V36.5733H17.5997V39.3333H20.4001V36.5733H23.1155V33.8066H28.4417V36.5733H31.1506V39.3333H33.9576V36.5733H36.6665V14.4733H36.575V14.4733ZM20.3086 20H14.9824V17.24H12.1754V20H9.46645V11.7133H12.1754V8.95334H17.5997V11.7133H20.3086V20Z" fill="#E3E7F2"/>
<path d="M17.2379 17.2379H11.7139V22.7619H17.2379V17.2379Z" fill="#428DFF"/>
<path d="M33.8106 17.2379H28.2866V22.7619H33.8106V17.2379Z" fill="#428DFF"/>
<path d="M3.33339 14.6666H0.666748V36.6666H3.33339V14.6666Z" fill="white"/>
<path d="M6.00004 8.95337H3.2334V14.6667H6.00004V8.95337Z" fill="white"/>
<path d="M8.86674 6.1333H6.1001V8.8933H8.86674V6.1333Z" fill="white"/>
<path d="M11.7415 3.43066H8.97485V6.19066H11.7415V3.43066Z" fill="white"/>
<path d="M14.5266 0.572632H11.76V3.33263H14.5266V0.572632Z" fill="white"/>
<path d="M17.4985 8.33855C17.4163 8.3037 17.3278 8.28573 17.2384 8.28589H11.7143C11.3458 8.28605 11.0472 8.58472 11.047 8.95323V11.047H8.95323C8.58472 11.0471 8.28612 11.3458 8.28589 11.7143V20C8.28581 20.1769 8.35597 20.3465 8.48105 20.4715C8.60612 20.5966 8.77573 20.6667 8.95253 20.6667H11.047V22.7598C11.0471 23.1285 11.3456 23.4276 11.7143 23.4284H17.2384C17.6073 23.4275 17.906 23.1286 17.907 22.7598V20.6667H20.0001C20.177 20.6667 20.3466 20.5966 20.4716 20.4715C20.5966 20.3464 20.6668 20.1768 20.6667 20V11.7135C20.6668 11.5367 20.5967 11.3671 20.4716 11.2421C20.3465 11.117 20.1769 11.0468 20.0001 11.0469H17.907V8.95316C17.9071 8.68472 17.7461 8.44237 17.4985 8.33855ZM16.5717 20V22.0932H12.381V17.905H16.5717V20ZM19.3335 19.3334H17.9051V17.2383C17.9052 17.0614 17.835 16.8918 17.71 16.7668C17.5849 16.6417 17.4153 16.5716 17.2385 16.5717H11.7144C11.5375 16.5716 11.3679 16.6417 11.2429 16.7668C11.1178 16.8919 11.0477 17.0615 11.0478 17.2383V19.3334H9.62003V12.3809H11.7144C11.8913 12.381 12.0609 12.3108 12.1859 12.1857C12.311 12.0607 12.3811 11.891 12.381 11.7142V9.61987H16.5718V11.7142C16.5717 11.8911 16.6419 12.0607 16.767 12.1857C16.8921 12.3108 17.0617 12.381 17.2385 12.3809H19.3335V19.3334H19.3335Z" fill="#428DFF"/>
<path d="M39.3334 13.8092H37.2383V8.95242C37.2384 8.77555 37.1682 8.60594 37.0431 8.48094C36.918 8.35586 36.7484 8.2857 36.5716 8.28578H34.4759V6.19078C34.476 6.01391 34.4059 5.8443 34.2808 5.7193C34.1557 5.59422 33.9861 5.52406 33.8093 5.52414H31.7136V3.42648C31.7137 3.24961 31.6435 3.08 31.5184 2.955C31.3934 2.82992 31.2237 2.75977 31.047 2.75984H28.9532V0.666641C28.9533 0.489766 28.8831 0.320156 28.758 0.195156C28.633 0.0701563 28.4633 -7.80598e-05 28.2865 6.51792e-08H11.7135C11.5366 -7.80598e-05 11.367 0.0700782 11.242 0.195156C11.117 0.320234 11.0468 0.489844 11.0469 0.666641V2.75977H8.95312C8.77625 2.75969 8.60664 2.82984 8.48164 2.95492C8.35664 3.08 8.28641 3.24961 8.28648 3.42641V5.52664H6.19336C6.01648 5.52656 5.84687 5.59672 5.72187 5.7218C5.5968 5.84687 5.52664 6.01648 5.52672 6.19328V8.28641H3.42641C3.24953 8.28633 3.07992 8.35648 2.95492 8.48156C2.82992 8.60664 2.75969 8.77625 2.75977 8.95305V13.8066H0.666641C0.489766 13.8066 0.320156 13.8767 0.195156 14.0018C0.0700782 14.1269 -7.80598e-05 14.2965 6.51792e-08 14.4733V17.3333C6.51792e-08 17.7015 0.298516 17.9999 0.666641 17.9999C1.03477 17.9999 1.33328 17.7014 1.33328 17.3333V15.1399H3.42641C3.60328 15.14 3.77289 15.0698 3.89789 14.9448C4.02297 14.8197 4.09312 14.6501 4.09305 14.4733V9.61977H6.19328C6.37016 9.61984 6.53977 9.54969 6.66477 9.42461C6.78984 9.29953 6.86 9.12992 6.85992 8.95312V6.86H8.95312C9.13 6.86008 9.29961 6.78992 9.42461 6.66484C9.54969 6.53977 9.61984 6.37016 9.61977 6.19336V4.09312H11.7135C11.8904 4.0932 12.06 4.02305 12.185 3.89797C12.3101 3.77289 12.3802 3.60328 12.3802 3.42648V1.33336H27.6198V3.42648C27.6197 3.60336 27.6898 3.77297 27.8149 3.89797C27.94 4.02305 28.1096 4.0932 28.2864 4.09312H30.3802V6.19336C30.3801 6.37023 30.4502 6.53984 30.5753 6.66484C30.7004 6.78992 30.87 6.86008 31.0468 6.86C31.0514 6.86 31.0552 6.8575 31.0597 6.85742H33.1425V8.28578H28.2857C28.1088 8.2857 27.9392 8.35586 27.8142 8.48094C27.6891 8.60602 27.619 8.77563 27.6191 8.95242V11.0469H25.5266C25.1577 11.0468 24.8583 11.3453 24.8573 11.7142V20C24.8572 20.1769 24.9273 20.3465 25.0524 20.4715C25.1775 20.5965 25.3471 20.6667 25.5239 20.6666H27.619V22.7617C27.6189 22.9386 27.6891 23.1082 27.8141 23.2332C27.9392 23.3582 28.1088 23.4284 28.2856 23.4284H33.8091C33.9859 23.4284 34.1555 23.3583 34.2805 23.2332C34.4055 23.1081 34.4758 22.9385 34.4757 22.7617V20.6666H36.5734C36.7502 20.6667 36.9198 20.5966 37.0448 20.4715C37.1699 20.3464 37.2401 20.1768 37.24 20L37.238 19.9903V15.1426H38.6665V35.9069H36.5734C36.3965 35.9068 36.2269 35.977 36.1019 36.102C35.9769 36.2271 35.9066 36.3967 35.9067 36.5735V38.6666H31.7134V36.5735C31.7134 36.3966 31.6433 36.227 31.5182 36.102C31.3931 35.977 31.2235 35.9068 31.0467 35.9069H28.953V33.8066C28.953 33.6298 28.8829 33.4602 28.7578 33.3352C28.6327 33.2101 28.4631 33.1399 28.2863 33.14H25.5266C25.3497 33.1399 25.1801 33.2101 25.0551 33.3352C24.93 33.4602 24.8598 33.6298 24.8599 33.8066V35.9069H22.7597C22.5828 35.9068 22.4132 35.977 22.2882 36.102C22.1631 36.2271 22.093 36.3967 22.093 36.5735V38.6666H17.9069V36.5734C17.907 36.3966 17.8368 36.227 17.7117 36.102C17.5866 35.977 17.417 35.9067 17.2402 35.9068H15.14V33.8066C15.1401 33.6297 15.0699 33.4601 14.9448 33.3351C14.8198 33.21 14.6502 33.1398 14.4734 33.1399H11.7136C11.5367 33.1398 11.3671 33.21 11.2421 33.3351C11.117 33.4602 11.0469 33.6298 11.047 33.8066V35.9068H8.9532C8.77633 35.9067 8.60672 35.9769 8.48172 36.102C8.35664 36.227 8.28648 36.3966 8.28656 36.5734V38.6665H4.09312V36.5734C4.0932 36.3965 4.02305 36.2269 3.89797 36.1019C3.77289 35.9769 3.60328 35.9066 3.42648 35.9067H1.33336V22.6666C1.33336 22.2984 1.03484 22 0.666719 22C0.298594 22 6.51792e-08 22.2985 6.51792e-08 22.6666V36.5735C-7.80598e-05 36.7504 0.0700782 36.92 0.195156 37.045C0.320234 37.17 0.489844 37.2402 0.666641 37.2402H2.75977V39.3333C2.75969 39.5102 2.82984 39.6798 2.95492 39.8048C3.08 39.9298 3.24961 40 3.42641 39.9999H8.95312C9.13 40 9.29961 39.9298 9.42461 39.8048C9.54969 39.6797 9.61984 39.5101 9.61977 39.3333V37.2402H11.7135C11.8904 37.2402 12.06 37.1701 12.185 37.045C12.3101 36.9199 12.3802 36.7503 12.3802 36.5735V34.4733H13.8066V36.5735C13.8066 36.7504 13.8767 36.92 14.0018 37.045C14.1269 37.1701 14.2965 37.2402 14.4733 37.2402H16.5735V39.3332C16.5734 39.5101 16.6436 39.6797 16.7687 39.8047C16.8938 39.9298 17.0634 39.9999 17.2402 39.9998H22.7597C22.9366 39.9999 23.1062 39.9298 23.2312 39.8047C23.3563 39.6796 23.4264 39.51 23.4263 39.3332V37.2401H25.5266C25.7034 37.2402 25.873 37.17 25.998 37.0449C26.123 36.9198 26.1933 36.7502 26.1932 36.5734V34.4732H27.6196V36.5734C27.6195 36.7503 27.6897 36.9199 27.8148 37.0449C27.9398 37.17 28.1095 37.2402 28.2862 37.2401H30.38V39.3331C30.3799 39.51 30.4501 39.6796 30.5752 39.8046C30.7002 39.9297 30.8698 39.9998 31.0466 39.9998H36.5733C36.7502 39.9998 36.9198 39.9297 37.0448 39.8046C37.1698 39.6795 37.24 39.5099 37.2399 39.3331V37.24H39.333C39.5099 37.2401 39.6795 37.1699 39.8045 37.0448C39.9296 36.9198 39.9998 36.7502 39.9997 36.5734V14.4757C39.9998 14.2988 39.9296 14.1292 39.8045 14.0042C39.6798 13.8794 39.5102 13.8091 39.3334 13.8092ZM35.9049 11.0475H34.4759V9.61914H35.9049V11.0475ZM33.1426 19.9871C33.1425 19.9916 33.14 19.9954 33.14 20V22.0931H28.9531V20L28.9524 19.9968V17.9049H33.1425L33.1426 19.9871ZM33.8092 16.5716H28.2858C28.1089 16.5716 27.9393 16.6417 27.8143 16.7668C27.6893 16.8919 27.6191 17.0615 27.6191 17.2383V19.3334H26.1934V12.3809H28.2858C28.6543 12.3807 28.9529 12.082 28.9531 11.7135V9.61977H31.0469L31.0501 9.61906H33.1426V11.7141C33.1425 11.891 33.2127 12.0606 33.3377 12.1856C33.4628 12.3107 33.6324 12.3809 33.8092 12.3808H35.9049V19.3333H34.4759V17.2383C34.476 17.0614 34.4059 16.8918 34.2808 16.7668C34.1557 16.6418 33.9861 16.5715 33.8092 16.5716Z" fill="#428DFF"/>
<path d="M0.666641 20.6667C1.03482 20.6667 1.33328 20.3682 1.33328 20C1.33328 19.6318 1.03482 19.3334 0.666641 19.3334C0.298465 19.3334 0 19.6318 0 20C0 20.3682 0.298465 20.6667 0.666641 20.6667Z" fill="#428DFF"/>
</g>
<defs>
<clipPath id="clip0_1659_1886">
<rect width="40" height="40" fill="white"/>
</clipPath>
</defs>
</svg>
