<svg width="24" height="25" viewBox="0 0 24 25" fill="none" xmlns="http://www.w3.org/2000/svg">
<path fill-rule="evenodd" clip-rule="evenodd" d="M14.4467 16.8769L20.2935 11.0476C21.1356 10.2081 21.5566 9.78836 21.7783 9.25458C22.0001 8.72081 22.0001 8.12719 22.0001 6.93996V6.37277C22.0001 4.54713 22.0001 3.63431 21.4312 3.06715C20.8624 2.5 19.9468 2.5 18.1157 2.5H17.5468C16.356 2.5 15.7606 2.5 15.2252 2.7211C14.6898 2.9422 14.2688 3.36195 13.4268 4.20146L7.57991 10.0308C6.59599 11.0117 5.98591 11.62 5.74966 12.2075C5.67502 12.3931 5.6377 12.5767 5.6377 12.7692C5.6377 13.5713 6.2851 14.2168 7.57991 15.5077L7.75393 15.6812L9.79245 13.6123C10.0832 13.3172 10.558 13.3137 10.8531 13.6044C11.1481 13.8951 11.1516 14.37 10.8609 14.6651L8.8162 16.7403L8.95326 16.8769C10.2481 18.1679 10.8955 18.8133 11.7 18.8133C11.8777 18.8133 12.0478 18.7818 12.2189 18.7188C12.8222 18.4966 13.438 17.8826 14.4467 16.8769ZM17.1935 10.0312C16.435 10.7874 15.2053 10.7874 14.4468 10.0312C13.6883 9.275 13.6883 8.04895 14.4468 7.29274C15.2053 6.53653 16.435 6.53653 17.1935 7.29274C17.952 8.04895 17.952 9.275 17.1935 10.0312Z" fill="currentColor"/>
<g opacity="0.5">
<path d="M9.03429 6.46305L6.49114 8.99856C6.02369 9.4646 5.59488 9.8921 5.25624 10.2786C5.03877 10.5267 4.82145 10.7984 4.63737 11.0985L4.61259 11.0738C4.56555 11.0269 4.54201 11.0034 4.51839 10.9805C4.07636 10.5516 3.55641 10.2106 2.98636 9.97575C2.9559 9.9632 2.92498 9.95095 2.86314 9.92645L2.48449 9.77641C1.97153 9.57315 1.83482 8.91279 2.22514 8.52365C3.34535 7.40684 4.69032 6.06594 5.33941 5.79662C5.91185 5.55911 6.53023 5.48008 7.12664 5.56822C7.67311 5.64898 8.19006 5.92968 9.03429 6.46305Z" fill="currentColor"/>
<path d="M13.3767 19.8132C13.5816 20.0212 13.7177 20.1681 13.8408 20.3251C14.0031 20.5322 14.1483 20.7522 14.2748 20.9829C14.4172 21.2426 14.5278 21.52 14.749 22.0748C14.929 22.5265 15.5272 22.6459 15.8746 22.2995L15.9586 22.2157C17.0788 21.0988 18.4237 19.7579 18.6938 19.1108C18.9321 18.54 19.0113 17.9235 18.9229 17.3289C18.8419 16.7841 18.5605 16.2688 18.0256 15.4273L15.474 17.9713C14.9959 18.4479 14.5576 18.885 14.1612 19.2273C13.9236 19.4325 13.6637 19.6376 13.3767 19.8132Z" fill="currentColor"/>
</g>
</svg>
