<svg width="25" height="25" viewBox="0 0 25 25" fill="none" xmlns="http://www.w3.org/2000/svg">
<g clip-path="url(#clip0_1930_2104)">
<path d="M17.6777 17.2303C15.401 19.5488 12.8302 21.5589 10.0312 23.2094C16.1512 24.6148 22.2515 20.793 23.6571 14.6732C24.0416 12.9984 24.0416 11.2581 23.6569 9.58344C22.0056 12.382 19.9955 14.9528 17.6777 17.2303Z" fill="url(#paint0_linear_1930_2104)"/>
<path d="M23.4005 7.4997C24.8128 4.49897 24.9159 2.17261 23.6924 0.949103C22.3951 -0.349848 19.8909 -0.154475 16.6426 1.48853C15.3384 0.970526 13.9482 0.70191 12.5449 0.696417C6.25119 0.703558 1.15096 5.80378 1.14401 12.0973C1.15096 13.5008 1.4205 14.8906 1.93832 16.1948C0.294213 19.444 0.0982899 21.9469 1.39742 23.2453C2.03756 23.8366 2.8901 24.1425 3.76004 24.0933C5.22122 24.0169 6.64908 23.6282 7.94729 22.9531C11.252 21.2705 14.2538 19.0498 16.8296 16.3818C19.4967 13.8057 21.7172 10.804 23.4005 7.4997ZM22.8439 1.79761C23.6239 2.57691 23.4855 4.30964 22.4939 6.5752C21.5204 4.82545 20.1057 3.36097 18.3905 2.32789C18.3741 2.33613 18.3618 2.33851 18.3451 2.34693C18.2984 2.37092 18.3074 2.3418 18.3354 2.29438C18.2439 2.24036 18.1435 2.20081 18.0501 2.14899C20.3067 1.15894 22.0644 1.01758 22.8439 1.79761ZM2.24575 22.3968C1.46517 21.6162 1.60562 19.8577 2.59786 17.5974C3.63809 19.4629 5.1791 21.0004 7.04678 22.0365C4.76986 23.0371 3.02835 23.1789 2.24575 22.3968ZM15.9765 15.5379L15.9825 15.5322L15.9812 15.5335L15.9765 15.5379Z" fill="url(#paint1_linear_1930_2104)"/>
</g>
<defs>
<linearGradient id="paint0_linear_1930_2104" x1="16.9883" y1="9.58344" x2="16.9883" y2="23.5003" gradientUnits="userSpaceOnUse">
<stop stop-color="#E3FF74"/>
<stop offset="1" stop-color="#FD5E04"/>
</linearGradient>
<linearGradient id="paint1_linear_1930_2104" x1="12.5436" y1="0.0983887" x2="12.5436" y2="24.0984" gradientUnits="userSpaceOnUse">
<stop stop-color="#E3FF74"/>
<stop offset="1" stop-color="#FD5E04"/>
</linearGradient>
<clipPath id="clip0_1930_2104">
<rect width="24" height="24" fill="white" transform="translate(0.5 0.0983887)"/>
</clipPath>
</defs>
</svg>
