<svg width="25" height="24" viewBox="0 0 25 24" fill="none" xmlns="http://www.w3.org/2000/svg">
<path d="M20.1091 1.47473C20.0698 0.649125 19.389 0 18.5625 0H6.69321C5.86671 0 5.1859 0.649125 5.14662 1.47473L4.47949 15.4839L5.99102 17.0323H19.9265L20.8131 16.2581L20.1091 1.47473Z" fill="#CCEFFA"/>
<path d="M20.7706 1.47473C20.7314 0.649125 20.0505 0 19.224 0H18.5623L19.1794 13.0516C19.242 14.3759 18.1852 15.4839 16.8594 15.4839H4.47923L4.44238 16.2581L5.99076 17.0323H19.9262L21.4746 16.2581L20.7706 1.47473Z" fill="#A5E3F0"/>
<path d="M12.9584 12.3871C12.8594 12.3871 12.7603 12.3493 12.6847 12.2737C12.5335 12.1225 12.5335 11.8775 12.6847 11.7264L15.0073 9.40379C15.1585 9.25257 15.4035 9.25257 15.5546 9.40379C15.7058 9.55501 15.7058 9.79998 15.5546 9.95115L13.2321 12.2737C13.1565 12.3493 13.0575 12.3871 12.9584 12.3871Z" fill="#77CC7D"/>
<path d="M12.958 13.5484C12.8589 13.5484 12.7599 13.5106 12.6842 13.435L11.1359 11.8866C10.9847 11.7354 10.9847 11.4904 11.1359 11.3392C11.2871 11.188 11.5321 11.188 11.6832 11.3392L13.2316 12.8876C13.3828 13.0388 13.3828 13.2838 13.2316 13.435C13.156 13.5106 13.057 13.5484 12.958 13.5484Z" fill="#77CC7D"/>
<path d="M7.95605 5.43465C8.07662 6.37065 8.56838 7.37603 9.40599 8.21364C10.4807 9.28834 11.8317 9.79374 12.9578 9.67614C12.9578 9.67614 12.6677 7.71817 11.4613 6.49646C10.5126 5.53581 9.33399 5.03635 8.29459 5.01779L7.95605 5.43465Z" fill="#98DB7C"/>
<path d="M7.9278 5.04694C7.93005 5.17435 7.93966 5.30391 7.95653 5.43465C8.97208 5.33307 10.1011 5.82451 10.9484 6.67182C11.5994 7.32305 12.0289 8.12082 12.1589 8.87659L12.9583 9.67594C13.0758 8.54982 12.5704 7.19898 11.4958 6.12427C10.5411 5.16962 9.36846 4.66416 8.3291 4.6456C8.10569 4.64166 7.92381 4.82354 7.9278 5.04694Z" fill="#77CC7D"/>
<path d="M17.2162 3.11057C16.2802 3.23113 15.2748 3.72289 14.4372 4.5605C13.3625 5.63521 12.8571 6.98619 12.9747 8.11232C12.9747 8.11232 14.9327 7.82221 16.1544 6.61578C17.115 5.66713 17.6145 4.4885 17.633 3.4491L17.2162 3.11057Z" fill="#98DB7C"/>
<path d="M17.6036 3.08185C17.4762 3.0841 17.3466 3.09371 17.2159 3.11059C17.3175 4.12613 16.826 5.25516 15.9787 6.10248C15.3275 6.75343 14.5297 7.18299 13.774 7.31298L12.9746 8.11234C14.1007 8.2299 15.4516 7.72449 16.5263 6.64984C17.4809 5.69518 17.9864 4.52251 18.005 3.48315C18.0089 3.25974 17.827 3.07787 17.6036 3.08185Z" fill="#77CC7D"/>
<path d="M15.5549 5.53276C15.4037 5.38154 15.1587 5.38154 15.0076 5.53276L13.1386 7.4019C12.7757 7.76485 12.5755 8.24687 12.5726 8.75949L10.9098 7.09665C10.7586 6.94543 10.5136 6.94543 10.3624 7.09665C10.2112 7.24787 10.2112 7.49283 10.3624 7.64401L12.2315 9.51305C12.4493 9.73083 12.5716 10.0262 12.5716 10.3342V15.4838H13.3458V8.77069C13.3458 8.46258 13.4682 8.16713 13.686 7.94926L15.555 6.08012C15.7061 5.92894 15.7061 5.68397 15.5549 5.53276Z" fill="#52BD7E"/>
<path d="M18.579 14.7226C18.5132 14.7141 18.4462 14.7097 18.3781 14.7097H7.53943C6.96629 14.7097 6.46599 15.0211 6.19824 15.4839L7.08329 15.9009H18.7629L18.579 14.7226Z" fill="#E29A6C"/>
<path d="M18.5782 14.7226C18.1545 15.1849 17.5386 15.4839 16.8589 15.4839H6.19747C6.06444 15.7125 5.99023 15.9746 5.99023 16.2581L7.53861 17.0323H18.3773L19.9257 16.2581C19.9257 15.4689 19.3413 14.8185 18.5782 14.7226Z" fill="#D48C64"/>
<path d="M5.99023 21.6774V23.2258L6.76442 23.6282H19.5134V21.6774H5.99023Z" fill="#C9C5C9"/>
<path d="M19.926 16.2581H4.44216C4.01456 16.2581 3.66797 16.6047 3.66797 17.0323L4.40522 17.3694L4.76475 21.6774L5.54161 22.0705H20.6947L21.0833 17.8064L19.926 16.2581Z" fill="#ECEAEC"/>
<path d="M19.1515 21.6774V22.4516C19.1515 22.8792 18.8049 23.2258 18.3773 23.2258H5.99023C5.99023 23.6534 6.33687 24 6.76442 24H19.1515C19.5791 24 19.9257 23.6534 19.9257 23.2258V21.6774H19.1515Z" fill="#B8B2B8"/>
<path d="M11.4097 20.9032H10.6355C10.2079 20.9032 9.86133 20.5566 9.86133 20.129C9.86133 19.7014 10.208 19.3548 10.6355 19.3548H11.4097C11.8373 19.3548 12.1839 19.7015 12.1839 20.129C12.1839 20.5566 11.8372 20.9032 11.4097 20.9032Z" fill="#DBD8DB"/>
<path d="M15.2808 20.9032H14.5066C14.079 20.9032 13.7324 20.5566 13.7324 20.129C13.7324 19.7014 14.0791 19.3548 14.5066 19.3548H15.2808C15.7084 19.3548 16.055 19.7015 16.055 20.129C16.055 20.5566 15.7084 20.9032 15.2808 20.9032Z" fill="#98DB7C"/>
<path d="M21.4744 16.2581H19.926C19.926 16.6856 19.5794 17.0323 19.1519 17.0323H3.66797C3.66797 17.4598 4.01461 17.8065 4.44216 17.8065H20.6975L20.4638 20.6125C20.4137 21.2144 19.9106 21.6774 19.3065 21.6774H4.76475L4.77009 21.7418C4.80356 22.143 5.139 22.4516 5.54161 22.4516H20.375C20.7776 22.4516 21.1131 22.1429 21.1465 21.7417L21.4744 17.8064C21.902 17.8064 22.2486 17.4598 22.2486 17.0322C22.2487 16.6047 21.902 16.2581 21.4744 16.2581Z" fill="#DBD8DB"/>
</svg>
