<svg width="25" height="25" viewBox="0 0 25 25" fill="none" xmlns="http://www.w3.org/2000/svg">
<g clip-path="url(#clip0_1931_2107)">
<path d="M17.6777 17.2303C15.401 19.5488 12.8302 21.5589 10.0312 23.2094C16.1512 24.6148 22.2515 20.793 23.6571 14.6732C24.0416 12.9984 24.0416 11.2581 23.6569 9.58344C22.0056 12.382 19.9955 14.9528 17.6777 17.2303Z" fill="#52525B"/>
<path d="M23.3536 7.4997C24.7659 4.49897 24.869 2.17261 23.6455 0.949103C22.3482 -0.349848 19.844 -0.154475 16.5957 1.48853C15.2915 0.970526 13.9013 0.70191 12.498 0.696417C6.20431 0.703558 1.10409 5.80378 1.09713 12.0973C1.10409 13.5008 1.37362 14.8906 1.89144 16.1948C0.247338 19.444 0.0514149 21.9469 1.35055 23.2453C1.99069 23.8366 2.84323 24.1425 3.71316 24.0933C5.17434 24.0169 6.6022 23.6282 7.90042 22.9531C11.2051 21.2705 14.2069 19.0498 16.7827 16.3818C19.4498 13.8057 21.6703 10.804 23.3536 7.4997ZM22.797 1.79761C23.577 2.57691 23.4386 4.30964 22.4471 6.5752C21.4735 4.82545 20.0588 3.36097 18.3437 2.32789C18.3272 2.33613 18.3149 2.33851 18.2983 2.34693C18.2516 2.37092 18.2605 2.3418 18.2885 2.29438C18.197 2.24036 18.0967 2.20081 18.0033 2.14899C20.2599 1.15894 22.0175 1.01758 22.797 1.79761ZM2.19888 22.3968C1.4183 21.6162 1.55874 19.8577 2.55099 17.5974C3.59121 19.4629 5.13223 21.0004 6.99991 22.0365C4.72299 23.0371 2.98147 23.1789 2.19888 22.3968ZM15.9296 15.5379L15.9356 15.5322L15.9344 15.5335L15.9296 15.5379Z" fill="#52525B"/>
</g>
<defs>
<clipPath id="clip0_1931_2107">
<rect width="24" height="24" fill="white" transform="translate(0.5 0.0983887)"/>
</clipPath>
</defs>
</svg>
