<svg width="25" height="24" viewBox="0 0 25 24" fill="none" xmlns="http://www.w3.org/2000/svg">
<path d="M15.0825 8.4375H9.83252C9.41831 8.4375 9.08252 8.77329 9.08252 9.1875V20.0625C9.08252 20.4767 9.41831 20.8125 9.83252 20.8125H15.0825C15.4967 20.8125 15.8325 20.4767 15.8325 20.0625V9.1875C15.8325 8.77329 15.4967 8.4375 15.0825 8.4375Z" fill="#FFBD00"/>
<path d="M7.02002 12.1875H3.64502C3.23081 12.1875 2.89502 12.5233 2.89502 12.9375V20.0625C2.89502 20.4767 3.23081 20.8125 3.64502 20.8125H7.02002C7.43423 20.8125 7.77002 20.4767 7.77002 20.0625V12.9375C7.77002 12.5233 7.43423 12.1875 7.02002 12.1875Z" fill="#FFDE50"/>
<path d="M21.27 10.6875H17.895C17.4808 10.6875 17.145 11.0233 17.145 11.4375V20.0625C17.145 20.4767 17.4808 20.8125 17.895 20.8125H21.27C21.6842 20.8125 22.02 20.4767 22.02 20.0625V11.4375C22.02 11.0233 21.6842 10.6875 21.27 10.6875Z" fill="#FFDE50"/>
<path d="M15.6238 3.22778L14.1725 3.80786L12.9255 1.93799C12.8712 1.86505 12.8006 1.8058 12.7194 1.76498C12.6381 1.72417 12.5485 1.70291 12.4575 1.70291C12.3666 1.70291 12.2769 1.72417 12.1957 1.76498C12.1144 1.8058 12.0438 1.86505 11.9895 1.93799L10.7426 3.80787L9.29128 3.22779C9.19512 3.18925 9.09018 3.17804 8.98805 3.19538C8.88591 3.21273 8.79056 3.25795 8.71251 3.32608C8.63446 3.3942 8.57676 3.48256 8.54577 3.58141C8.51477 3.68026 8.5117 3.78575 8.53688 3.88624L9.28688 6.88624C9.31727 7.00796 9.38748 7.11603 9.48635 7.19327C9.58521 7.2705 9.70706 7.31247 9.83252 7.31249H15.0825C15.208 7.31247 15.3298 7.2705 15.4287 7.19327C15.5276 7.11603 15.5978 7.00795 15.6282 6.88622L16.3782 3.88622C16.4034 3.78574 16.4003 3.68024 16.3693 3.58139C16.3383 3.48254 16.2806 3.39418 16.2025 3.32606C16.1245 3.25794 16.0291 3.21271 15.927 3.19537C15.8249 3.17802 15.7199 3.18924 15.6238 3.22778Z" fill="#FFBD00"/>
<path d="M12.4576 15.5625C12.3085 15.5625 12.1654 15.5032 12.0599 15.3977C11.9545 15.2922 11.8952 15.1492 11.8951 15V12.9052C11.7602 12.953 11.612 12.9475 11.481 12.8898C11.3499 12.8322 11.2458 12.7267 11.1898 12.5949C11.1338 12.4631 11.1302 12.315 11.1797 12.1806C11.2291 12.0462 11.328 11.9358 11.456 11.8718L12.206 11.4968C12.2918 11.454 12.3871 11.4337 12.4829 11.4381C12.5787 11.4424 12.6718 11.4711 12.7533 11.5216C12.8349 11.572 12.9022 11.6424 12.9489 11.7261C12.9956 11.8098 13.0201 11.9041 13.0201 12V15C13.0201 15.1492 12.9608 15.2922 12.8553 15.3977C12.7499 15.5032 12.6068 15.5625 12.4576 15.5625Z" fill="#F98824"/>
<path d="M13.02 15.5625H11.895C11.7458 15.5625 11.6028 15.5032 11.4973 15.3977C11.3918 15.2923 11.3325 15.1492 11.3325 15C11.3325 14.8508 11.3918 14.7077 11.4973 14.6023C11.6028 14.4968 11.7458 14.4375 11.895 14.4375H13.02C13.1692 14.4375 13.3123 14.4968 13.4178 14.6023C13.5233 14.7077 13.5825 14.8508 13.5825 15C13.5825 15.1492 13.5233 15.2923 13.4178 15.3977C13.3123 15.5032 13.1692 15.5625 13.02 15.5625Z" fill="#F98824"/>
<path d="M22.395 19.6875H2.52002C2.31291 19.6875 2.14502 19.8554 2.14502 20.0625V21.9375C2.14502 22.1446 2.31291 22.3125 2.52002 22.3125H22.395C22.6021 22.3125 22.77 22.1446 22.77 21.9375V20.0625C22.77 19.8554 22.6021 19.6875 22.395 19.6875Z" fill="#F98824"/>
<path d="M15.8325 7.3125H9.08252C8.93334 7.3125 8.79026 7.25324 8.68477 7.14775C8.57928 7.04226 8.52002 6.89918 8.52002 6.75C8.52002 6.60082 8.57928 6.45774 8.68477 6.35225C8.79026 6.24676 8.93334 6.1875 9.08252 6.1875H15.8325C15.9817 6.1875 16.1248 6.24676 16.2303 6.35225C16.3358 6.45774 16.395 6.60082 16.395 6.75C16.395 6.89918 16.3358 7.04226 16.2303 7.14775C16.1248 7.25324 15.9817 7.3125 15.8325 7.3125Z" fill="#F98824"/>
</svg>
