<svg width="24" height="24" viewBox="0 0 24 24" fill="none" xmlns="http://www.w3.org/2000/svg">
<g clip-path="url(#clip0_1743_139)">
<path d="M21.5746 21.9026H21.1349C21.2135 19.5626 19.3396 17.1176 17.5892 17.1176H17.2939L17.0192 16.0629C16.8765 15.5167 16.3825 15.135 15.8177 15.135H13.3132V8.22569C14.9994 7.67379 16.217 6.08741 16.217 4.21707C16.217 1.88793 14.329 0 11.9999 0C9.67077 0 7.78284 1.88793 7.78284 4.21707C7.78284 6.08747 9.00042 7.67379 10.6866 8.22569V15.135H8.18215C7.61732 15.135 7.12335 15.5167 6.9806 16.0629L6.70594 17.1176H6.4106C4.65508 17.1176 2.78628 19.5672 2.86491 21.9026H2.42525C1.0287 21.9026 1.03025 24 2.42525 24H21.5746C22.9711 24 22.9696 21.9026 21.5746 21.9026Z" fill="#CBE3FA"/>
<path d="M22.5894 22.6784H3.97697C3.15663 22.6784 2.81835 23.4026 2.96215 24H2.42525C1.03025 24 1.0287 21.9026 2.42525 21.9026H21.5746C22.1497 21.9026 22.488 22.259 22.5894 22.6784Z" fill="#EEF7FF"/>
<path d="M11.721 8.42482V15.135H10.6865V8.22568C11.0155 8.33326 11.362 8.40154 11.721 8.42482Z" fill="#EEF7FF"/>
<path d="M17.5895 17.1176H6.41088C4.65536 17.1176 2.78657 19.5672 2.86519 21.9026H21.1352C21.2138 19.5626 19.3398 17.1176 17.5895 17.1176Z" fill="#FF6D7A"/>
<path d="M19.6393 18.1521H8.47985C6.98347 18.1521 5.40536 19.9313 5.02002 21.9026H2.86519C2.78657 19.5672 4.65536 17.1176 6.41088 17.1176H17.5895C18.2986 17.1176 19.028 17.519 19.6393 18.1521Z" fill="#FF8C95"/>
<path d="M15.2459 19.7136C16.7019 19.7136 16.703 21.9026 15.2459 21.9026H8.75452C7.29849 21.9026 7.29745 19.7136 8.75452 19.7136H15.2459Z" fill="#E84857"/>
<path d="M17.0193 16.0629L17.294 17.1176H6.70605L6.98071 16.0629C7.12347 15.5167 7.61743 15.135 8.18226 15.135H15.8178C16.3826 15.135 16.8766 15.5167 17.0193 16.0629Z" fill="#9EC7F0"/>
<path d="M16.9686 15.9109H9.73399C9.16916 15.9109 8.67519 16.2926 8.53243 16.8388L8.46002 17.1176H6.70605L6.98071 16.0629C7.12347 15.5167 7.61743 15.135 8.18226 15.135H15.8178C16.3283 15.135 16.7814 15.4469 16.9686 15.9109Z" fill="#B5D5F5"/>
<path d="M11.9998 0C14.3289 0 16.2169 1.88793 16.2169 4.21707C16.2169 6.08741 14.9993 7.67379 13.3131 8.22569C10.6014 9.11488 7.78271 7.09681 7.78271 4.21707C7.78271 1.88793 9.67065 0 11.9998 0Z" fill="#FF6D7A"/>
<path d="M9.33444 4.99293C9.33444 6.33207 9.95875 7.52534 10.9322 8.2981C9.11632 7.82147 7.78271 6.17628 7.78271 4.21707C7.78271 1.88793 9.67065 0 11.9998 0C12.9898 0 13.9001 0.340862 14.6196 0.912414C11.9409 0.213155 9.33444 2.238 9.33444 4.99293Z" fill="#FF8C95"/>
<path d="M9.89133 4.63086C9.66281 4.63086 9.47754 4.44558 9.47754 4.21707C9.47754 2.82636 10.6092 1.69495 12.0001 1.69495C12.2286 1.69495 12.4139 1.88022 12.4139 2.10874C12.4139 2.33726 12.2286 2.52253 12.0001 2.52253C11.0655 2.52253 10.3051 3.28267 10.3051 4.21707C10.3051 4.44558 10.1198 4.63086 9.89133 4.63086Z" fill="white"/>
</g>
<defs>
<clipPath id="clip0_1743_139">
<rect width="24" height="24" fill="white"/>
</clipPath>
</defs>
</svg>
