<svg width="25" height="24" viewBox="0 0 25 24" fill="none" xmlns="http://www.w3.org/2000/svg">
<path d="M18.9199 2.79693L19.3059 2.85293C19.9059 2.94793 20.5779 3.10693 20.9909 3.51993C21.4039 3.93293 21.5639 4.60592 21.6589 5.20592L21.7149 5.59093C21.8409 6.50093 21.8739 7.69392 21.6589 9.01792C21.2349 11.6309 19.8439 14.7479 16.3509 17.1629C16.3356 17.3415 16.3299 17.5208 16.3339 17.6999L16.3509 18.2429C16.3609 18.6049 16.3549 18.9659 16.2549 19.3129C16.0649 19.9729 15.3879 20.4079 14.7549 20.7199L14.4449 20.8669L14.0449 21.0429L13.7719 21.1529C13.0649 21.4229 12.2119 21.6119 11.6539 21.0529C11.4009 20.7999 11.2839 20.4559 11.1899 20.1119L11.1439 19.9399C10.9839 19.3329 10.8029 18.7299 10.5769 18.1459C10.5145 18.2218 10.4484 18.2945 10.3789 18.3639C9.83391 18.9079 9.09491 19.1819 8.35591 19.3939L7.86491 19.5289L7.37491 19.6589L6.89691 19.7789L6.46491 19.8789L5.94791 19.9889L5.62491 20.0519C5.46382 20.0818 5.29789 20.0719 5.14143 20.0233C4.98498 19.9748 4.84269 19.8888 4.72685 19.773C4.61101 19.6571 4.52508 19.5149 4.47648 19.3584C4.42789 19.2019 4.41808 19.036 4.44791 18.8749L4.55891 18.3239L4.68791 17.7459L4.81191 17.2359L5.03691 16.3909C5.25991 15.5709 5.53091 14.7259 6.13691 14.1209L6.23591 14.0259L5.47291 13.7519L4.70591 13.4879C4.25691 13.3399 3.78491 13.1839 3.45891 12.8579C2.86291 12.2619 3.11591 11.3319 3.41291 10.6009L3.57891 10.2139L3.71591 9.91293C4.03291 9.23892 4.48291 8.46292 5.19891 8.25693C5.54591 8.15693 5.90591 8.15093 6.26891 8.15992L6.81191 8.17793C6.99191 8.18259 7.17091 8.17693 7.34891 8.16093C9.76291 4.66793 12.8809 3.27693 15.4939 2.85293C16.627 2.66623 17.7813 2.64736 18.9199 2.79693ZM15.8139 4.82693C13.6159 5.18393 10.9449 6.36093 8.86091 9.49593C8.60791 9.87593 8.18091 10.0569 7.74591 10.1259C7.49991 10.1659 7.25191 10.1759 7.00291 10.1759L6.25591 10.1649C6.13191 10.1643 6.00757 10.1663 5.88291 10.1709C5.57891 10.5749 5.36691 11.0549 5.20791 11.5319L6.70791 12.0769L7.32491 12.3099C8.45291 12.7519 9.54491 13.2869 10.3849 14.1269C11.7999 15.5419 12.5189 17.3929 13.0389 19.2839C13.4949 19.1239 13.9529 18.9199 14.3409 18.6289L14.3469 18.2559L14.3359 17.5099C14.3359 17.2619 14.3459 17.0139 14.3859 16.7659C14.4539 16.3309 14.6359 15.9039 15.0159 15.6509C18.1509 13.5669 19.3279 10.8959 19.6849 8.69793C19.8649 7.58792 19.8349 6.59592 19.7339 5.86492C19.695 5.56167 19.6305 5.26226 19.5409 4.96992C19.2485 4.88071 18.9491 4.81648 18.6459 4.77793C17.7045 4.65593 16.7504 4.67178 15.8139 4.82693ZM7.54991 15.5349C7.19991 15.9579 7.03691 16.5129 6.90591 17.0629L6.79791 17.5309L6.74291 17.7569L7.43691 17.5939C7.98691 17.4639 8.54291 17.2989 8.96491 16.9489C9.15242 16.7613 9.2577 16.5068 9.25761 16.2416C9.25752 15.9763 9.15205 15.7219 8.96441 15.5344C8.77677 15.3469 8.52232 15.2416 8.25705 15.2417C7.99178 15.2418 7.73742 15.3473 7.54991 15.5349ZM13.2069 8.46493C13.3926 8.27917 13.6131 8.13181 13.8557 8.03125C14.0983 7.9307 14.3584 7.87892 14.6211 7.87887C14.8837 7.87883 15.1438 7.93051 15.3865 8.03098C15.6291 8.13145 15.8497 8.27874 16.0354 8.46443C16.2212 8.65011 16.3685 8.87057 16.4691 9.11321C16.5696 9.35585 16.6214 9.61592 16.6215 9.87857C16.6215 10.1412 16.5698 10.4013 16.4693 10.644C16.3689 10.8867 16.2216 11.1072 16.0359 11.2929C15.6608 11.6681 15.1519 11.8788 14.6214 11.8788C14.0909 11.8788 13.5821 11.6681 13.2069 11.2929C12.8318 10.9178 12.621 10.409 12.621 9.87843C12.621 9.34788 12.8318 8.83907 13.2069 8.46392V8.46493Z" fill="#FAFAFA"/>
</svg>
