<svg width="25" height="24" viewBox="0 0 25 24" fill="none" xmlns="http://www.w3.org/2000/svg">
<path d="M18.9199 2.79705L19.3059 2.85305C19.9059 2.94805 20.5779 3.10705 20.9909 3.52005C21.4039 3.93305 21.5639 4.60605 21.6589 5.20605L21.7149 5.59105C21.8409 6.50105 21.8739 7.69405 21.6589 9.01805C21.2349 11.631 19.8439 14.748 16.3509 17.163C16.3356 17.3416 16.3299 17.5209 16.3339 17.7L16.3509 18.243C16.3609 18.605 16.3549 18.966 16.2549 19.313C16.0649 19.973 15.3879 20.408 14.7549 20.72L14.4449 20.867L14.0449 21.043L13.7719 21.153C13.0649 21.423 12.2119 21.612 11.6539 21.053C11.4009 20.8 11.2839 20.456 11.1899 20.112L11.1439 19.94C10.9839 19.333 10.8029 18.73 10.5769 18.146C10.5145 18.2219 10.4484 18.2947 10.3789 18.364C9.83391 18.908 9.09491 19.182 8.35591 19.394L7.86491 19.529L7.37491 19.659L6.89691 19.779L6.46491 19.879L5.94791 19.989L5.62491 20.052C5.46382 20.0819 5.29789 20.0721 5.14143 20.0235C4.98498 19.9749 4.84269 19.889 4.72685 19.7731C4.61101 19.6573 4.52508 19.515 4.47648 19.3585C4.42789 19.2021 4.41808 19.0361 4.44791 18.875L4.55891 18.324L4.68791 17.746L4.81191 17.236L5.03691 16.391C5.25991 15.571 5.53091 14.726 6.13691 14.121L6.23591 14.026L5.47291 13.752L4.70591 13.488C4.25691 13.34 3.78491 13.184 3.45891 12.858C2.86291 12.262 3.11591 11.332 3.41291 10.601L3.57891 10.214L3.71591 9.91305C4.03291 9.23905 4.48291 8.46305 5.19891 8.25705C5.54591 8.15705 5.90591 8.15105 6.26891 8.16005L6.81191 8.17805C6.99191 8.18271 7.17091 8.17705 7.34891 8.16105C9.76291 4.66805 12.8809 3.27705 15.4939 2.85305C16.627 2.66635 17.7813 2.64748 18.9199 2.79705ZM15.8139 4.82705C13.6159 5.18405 10.9449 6.36105 8.86091 9.49605C8.60791 9.87605 8.18091 10.057 7.74591 10.126C7.49991 10.166 7.25191 10.176 7.00291 10.176L6.25591 10.165C6.13191 10.1644 6.00757 10.1664 5.88291 10.171C5.57891 10.575 5.36691 11.055 5.20791 11.532L6.70791 12.077L7.32491 12.31C8.45291 12.752 9.54491 13.287 10.3849 14.127C11.7999 15.542 12.5189 17.393 13.0389 19.284C13.4949 19.124 13.9529 18.92 14.3409 18.629L14.3469 18.256L14.3359 17.51C14.3359 17.262 14.3459 17.014 14.3859 16.766C14.4539 16.331 14.6359 15.904 15.0159 15.651C18.1509 13.567 19.3279 10.896 19.6849 8.69805C19.8649 7.58805 19.8349 6.59605 19.7339 5.86505C19.695 5.56179 19.6305 5.26238 19.5409 4.97005C19.2485 4.88083 18.9491 4.8166 18.6459 4.77805C17.7045 4.65606 16.7504 4.6719 15.8139 4.82705ZM7.54991 15.535C7.19991 15.958 7.03691 16.513 6.90591 17.063L6.79791 17.531L6.74291 17.757L7.43691 17.594C7.98691 17.464 8.54291 17.299 8.96491 16.949C9.15242 16.7614 9.2577 16.507 9.25761 16.2417C9.25752 15.9764 9.15205 15.7221 8.96441 15.5345C8.77677 15.347 8.52232 15.2418 8.25705 15.2418C7.99178 15.2419 7.73742 15.3474 7.54991 15.535ZM13.2069 8.46505C13.3926 8.27929 13.6131 8.13193 13.8557 8.03138C14.0983 7.93082 14.3584 7.87904 14.6211 7.879C14.8837 7.87895 15.1438 7.93064 15.3865 8.03111C15.6291 8.13157 15.8497 8.27886 16.0354 8.46455C16.2212 8.65024 16.3685 8.87069 16.4691 9.11333C16.5696 9.35597 16.6214 9.61604 16.6215 9.87869C16.6215 10.1413 16.5698 10.4014 16.4693 10.6441C16.3689 10.8868 16.2216 11.1073 16.0359 11.293C15.6608 11.6682 15.1519 11.879 14.6214 11.879C14.0909 11.879 13.5821 11.6682 13.2069 11.293C12.8318 10.9179 12.621 10.4091 12.621 9.87855C12.621 9.34801 12.8318 8.8392 13.2069 8.46405V8.46505Z" fill="#FAFAFA"/>
</svg>
