<svg width="80" height="80" viewBox="0 0 80 80" fill="none" xmlns="http://www.w3.org/2000/svg">
<path fill-rule="evenodd" clip-rule="evenodd" d="M27.403 5C25.1247 5 22.9699 6.03568 21.5466 7.8148L14.1435 17.0687C13.0796 18.3986 12.5 20.0509 12.5 21.7539V67.5C12.5 71.6423 15.8579 75 20 75H60C64.1423 75 67.5 71.6423 67.5 67.5V12.5C67.5 8.35788 64.1423 5 60 5H27.403ZM30.7323 36.7677C29.756 35.7915 29.756 34.2085 30.7323 33.2323L38.2323 25.7323C39.2085 24.7559 40.7915 24.7559 41.7677 25.7323L49.2677 33.2323C50.244 34.2085 50.244 35.7915 49.2677 36.7677C48.2915 37.744 46.7085 37.744 45.7323 36.7677L42.5 33.5355V45C42.5 46.3807 41.3808 47.5 40 47.5C38.6192 47.5 37.5 46.3807 37.5 45V33.5355L34.2677 36.7677C33.2915 37.744 31.7085 37.744 30.7323 36.7677ZM52.5 55C53.8807 55 55 53.8807 55 52.5C55 51.1193 53.8807 50 52.5 50H27.5C26.1193 50 25 51.1193 25 52.5C25 53.8807 26.1193 55 27.5 55H52.5Z" fill="#FAA632"/>
</svg>
