<svg width="60" height="60" viewBox="0 0 60 60" fill="none" xmlns="http://www.w3.org/2000/svg">
<g clip-path="url(#clip0_9864_30229)">
<path d="M58 2.00001H52C51.6697 2.00089 51.3448 2.08355 51.0543 2.24059C50.7638 2.39764 50.5166 2.62419 50.335 2.90001L30.268 0.0490136C29.3541 -0.0739027 28.4239 0.0418519 27.568 0.385014L15.4 5.29101C14.711 5.5708 14.0878 5.9909 13.5699 6.52459C13.052 7.05829 12.6509 7.6939 12.392 8.39101L10.305 14H8C7.20435 14 6.44129 14.3161 5.87868 14.8787C5.31607 15.4413 5 16.2044 5 17V50H2C1.46957 50 0.960859 50.2107 0.585786 50.5858C0.210714 50.9609 0 51.4696 0 52L0 58C0 58.5304 0.210714 59.0392 0.585786 59.4142C0.960859 59.7893 1.46957 60 2 60H44C44.5304 60 45.0391 59.7893 45.4142 59.4142C45.7893 59.0392 46 58.5304 46 58V52C46 51.4696 45.7893 50.9609 45.4142 50.5858C45.0391 50.2107 44.5304 50 44 50H41V21.383L43.717 20.212C44.04 20.0714 44.3887 19.9992 44.741 20H50.278C50.4521 20.3031 50.7029 20.555 51.0052 20.7305C51.3074 20.906 51.6505 20.999 52 21H58C58.5304 21 59.0391 20.7893 59.4142 20.4142C59.7893 20.0392 60 19.5304 60 19V4.00001C60 3.46958 59.7893 2.96087 59.4142 2.5858C59.0391 2.21073 58.5304 2.00001 58 2.00001ZM44 52V58H2V52H5V54C5 54.5304 5.21071 55.0392 5.58579 55.4142C5.96086 55.7893 6.46957 56 7 56H39C39.5304 56 40.0391 55.7893 40.4142 55.4142C40.7893 55.0392 41 54.5304 41 54V52H44ZM39 54H7V17C7 16.7348 7.10536 16.4804 7.29289 16.2929C7.48043 16.1054 7.73478 16 8 16H31.22L22.863 19.656C22.3184 19.8947 21.828 20.2416 21.4216 20.6756C21.0152 21.1097 20.7013 21.6218 20.499 22.181C20.2967 22.7401 20.2102 23.3345 20.2447 23.9281C20.2793 24.5217 20.4342 25.1021 20.7 25.634C21.1995 26.6245 22.0547 27.3897 23.0944 27.7765C24.1341 28.1633 25.2816 28.1432 26.307 27.72L39 22.246V54ZM34.408 14H19.414L20.814 12.6C21.22 12.1909 21.7602 11.9423 22.335 11.9L32.415 11.18C32.9054 11.1502 33.3901 11.2976 33.7809 11.5954C34.1717 11.8931 34.4425 12.3213 34.544 12.802C34.6226 13.2058 34.5751 13.6241 34.408 14ZM42.924 18.376L25.524 25.876C24.9669 26.1037 24.3445 26.1129 23.7808 25.902C23.2172 25.6911 22.7538 25.2755 22.483 24.738C22.3384 24.4487 22.2542 24.1331 22.2354 23.8102C22.2167 23.4873 22.2638 23.164 22.3739 22.8599C22.484 22.5559 22.6548 22.2773 22.8759 22.0413C23.0969 21.8053 23.3637 21.6167 23.66 21.487L34.166 16.887C35.035 16.5065 35.7417 15.8313 36.1612 14.9804C36.5808 14.1296 36.6862 13.1578 36.4589 12.2368C36.2317 11.3158 35.6863 10.5046 34.9191 9.94662C34.1519 9.38859 33.2123 9.11956 32.266 9.18701L22.186 9.90801C21.1336 9.98563 20.1444 10.4401 19.4 11.188L16.586 14H12.439L14.267 9.08701C14.4286 8.65064 14.6793 8.25269 15.0032 7.91852C15.327 7.58434 15.7169 7.32126 16.148 7.14601L28.313 2.24001C28.8444 2.02464 29.4229 1.95224 29.991 2.03001L50 4.86801V18H44.741C44.1159 17.9992 43.4974 18.1272 42.924 18.376ZM52 19V4.00001H58V19H52Z" fill="currentColor"/>
<path d="M16.7064 40.293C16.5178 40.1108 16.2652 40.01 16.003 40.0123C15.7408 40.0146 15.49 40.1198 15.3046 40.3052C15.1192 40.4906 15.014 40.7414 15.0118 41.0036C15.0095 41.2658 15.1103 41.5184 15.2924 41.707L18.2924 44.707C18.4799 44.8945 18.7342 44.9999 18.9994 45H19.0594C19.2004 44.9915 19.338 44.9533 19.4631 44.8878C19.5883 44.8223 19.6981 44.731 19.7854 44.62L30.7854 30.62C30.9441 30.4111 31.0143 30.1482 30.981 29.888C30.9476 29.6278 30.8134 29.3912 30.6072 29.229C30.401 29.0669 30.1393 28.9923 29.8786 29.0213C29.6179 29.0502 29.379 29.1805 29.2134 29.384L18.9094 42.5L16.7064 40.293Z" fill="currentColor"/>
</g>
<defs>
<clipPath id="clip0_9864_30229">
<rect width="60" height="60" fill="white"/>
</clipPath>
</defs>
</svg>
