<svg width="160" height="167" viewBox="0 0 160 167" fill="none" xmlns="http://www.w3.org/2000/svg">
<path fill-rule="evenodd" clip-rule="evenodd" d="M0.0211899 141.473C10.9764 136.806 38.4934 129.402 60.9195 137.128C83.3455 144.853 97.6518 159.66 102.002 166.098C102.163 159.017 107.801 143.018 129.068 135.679C119.723 128.437 99.585 108.543 93.7852 86.9119C99.7461 83.6929 117.661 78.4138 141.634 83.0491L160 59.3899L121.334 43.456L117.468 34.7648L88.4687 24.6251V7.72551L69.1359 0C45.6143 15.7728 -1.13878 66.1493 0.0211899 141.473ZM27.0638 59.3898C31.4137 50.5377 46.1066 28.2946 70.0792 10.1397L78.779 13.0368V29.9363L110.678 42.0074L113.095 49.2501L146.444 63.7354L138.711 73.8751C126.95 72.1047 99.0784 71.4609 81.6789 83.0492C81.1956 79.1864 81.0989 69.3364 84.5788 60.8384L77.8124 56.9756C72.8181 69.0467 66.986 101.687 83.6122 135.679L65.2461 127.471C62.0239 115.883 58.4796 84.5943 70.0792 52.1472L63.7961 48.7672L59.4462 60.8384C52.8409 59.2289 37.1169 56.6859 27.0638 59.3898Z" fill="url(#paint0_linear_1906_2021)"/>
<defs>
<linearGradient id="paint0_linear_1906_2021" x1="80" y1="0" x2="80" y2="166.098" gradientUnits="userSpaceOnUse">
<stop stop-color="#E3FF74"/>
<stop offset="1" stop-color="#FD5E04"/>
</linearGradient>
</defs>
</svg>
