<svg width="80" height="80" viewBox="0 0 80 80" fill="none" xmlns="http://www.w3.org/2000/svg">
<path d="M53.9668 6.66663H26.0334C13.9001 6.66663 6.66675 13.9 6.66675 26.0333V53.9666C6.66675 66.1 13.9001 73.3333 26.0334 73.3333H53.9668C66.1001 73.3333 73.3334 66.1 73.3334 53.9666V26.0333C73.3334 13.9 66.1001 6.66663 53.9668 6.66663ZM33.2334 49.6666L25.7334 57.1666C25.2334 57.6666 24.6001 57.9 23.9667 57.9C23.3334 57.9 22.6667 57.6666 22.2001 57.1666L19.7001 54.6666C18.7001 53.7 18.7001 52.1 19.7001 51.1333C20.6667 50.1666 22.2334 50.1666 23.2334 51.1333L23.9667 51.8666L29.7001 46.1333C30.6667 45.1666 32.2334 45.1666 33.2334 46.1333C34.2001 47.1 34.2001 48.7 33.2334 49.6666ZM33.2334 26.3333L25.7334 33.8333C25.2334 34.3333 24.6001 34.5666 23.9667 34.5666C23.3334 34.5666 22.6667 34.3333 22.2001 33.8333L19.7001 31.3333C18.7001 30.3666 18.7001 28.7666 19.7001 27.8C20.6667 26.8333 22.2334 26.8333 23.2334 27.8L23.9667 28.5333L29.7001 22.8C30.6667 21.8333 32.2334 21.8333 33.2334 22.8C34.2001 23.7666 34.2001 25.3666 33.2334 26.3333ZM58.5334 55.4H41.0334C39.6668 55.4 38.5334 54.2666 38.5334 52.9C38.5334 51.5333 39.6668 50.4 41.0334 50.4H58.5334C59.9334 50.4 61.0334 51.5333 61.0334 52.9C61.0334 54.2666 59.9334 55.4 58.5334 55.4ZM58.5334 32.0666H41.0334C39.6668 32.0666 38.5334 30.9333 38.5334 29.5666C38.5334 28.2 39.6668 27.0666 41.0334 27.0666H58.5334C59.9334 27.0666 61.0334 28.2 61.0334 29.5666C61.0334 30.9333 59.9334 32.0666 58.5334 32.0666Z" fill="#FAA632"/>
</svg>
