<svg width="24" height="25" viewBox="0 0 24 25" fill="none" xmlns="http://www.w3.org/2000/svg">
<path opacity="0.5" d="M12.7949 2.5H10.7949C8.9093 2.5 7.96649 2.5 7.38071 3.08579C6.79492 3.67157 6.79492 4.61438 6.79492 6.5V8.5V10H16.7949V8.5V6.5C16.7949 4.61438 16.7949 3.67157 16.2091 3.08579C15.6233 2.5 14.6805 2.5 12.7949 2.5Z" fill="#D4D4D8"/>
<path fill-rule="evenodd" clip-rule="evenodd" d="M13.2304 6.28311C12.3352 5.79495 11.2533 5.79495 10.358 6.28311L5.56381 8.89728C4.59982 9.42292 4 10.4332 4 11.5312V16.4688C4 17.5668 4.59982 18.5771 5.56381 19.1027L10.358 21.7169C11.2533 22.205 12.3352 22.205 13.2304 21.7169L18.0246 19.1027C18.9886 18.5771 19.5885 17.5668 19.5885 16.4688V11.5312C19.5885 10.4332 18.9886 9.42292 18.0246 8.89728L13.2304 6.28311ZM11.7944 11C11.5104 11 11.3204 11.3408 10.9404 12.0225L10.8421 12.1989C10.7341 12.3926 10.6801 12.4894 10.5959 12.5533C10.5117 12.6172 10.4069 12.641 10.1972 12.6884L10.0063 12.7316C9.26839 12.8986 8.89944 12.982 8.81166 13.2643C8.72388 13.5466 8.97541 13.8407 9.47846 14.429L9.60861 14.5812C9.75156 14.7483 9.82304 14.8319 9.85519 14.9353C9.88735 15.0387 9.87654 15.1502 9.85493 15.3733L9.83525 15.5763C9.7592 16.3612 9.72117 16.7536 9.95098 16.9281C10.1808 17.1025 10.5262 16.9435 11.2171 16.6254L11.3959 16.5431C11.5922 16.4527 11.6904 16.4075 11.7944 16.4075C11.8985 16.4075 11.9967 16.4527 12.193 16.5431L12.3717 16.6254C13.0626 16.9435 13.4081 17.1025 13.6379 16.9281C13.8677 16.7536 13.8297 16.3612 13.7536 15.5763L13.7339 15.3733C13.7123 15.1502 13.7015 15.0387 13.7337 14.9353C13.7658 14.8319 13.8373 14.7483 13.9802 14.5812L14.1104 14.429C14.6135 13.8407 14.865 13.5466 14.7772 13.2643C14.6894 12.982 14.3205 12.8986 13.5826 12.7316L13.3917 12.6884C13.182 12.641 13.0771 12.6172 12.993 12.5533C12.9088 12.4894 12.8548 12.3926 12.7468 12.1989L12.6485 12.0225C12.2685 11.3408 12.0785 11 11.7944 11Z" fill="#D4D4D8"/>
<defs>
<linearGradient id="paint0_linear_746_1465" x1="12.2949" y1="2" x2="12.2949" y2="9.5" gradientUnits="userSpaceOnUse">
<stop stop-color="#E3FF74"/>
<stop offset="1" stop-color="#E37C39"/>
</linearGradient>
<linearGradient id="paint1_linear_746_1465" x1="12.2942" y1="5.41699" x2="12.2942" y2="21.583" gradientUnits="userSpaceOnUse">
<stop stop-color="#E3FF74"/>
<stop offset="1" stop-color="#E37C39"/>
</linearGradient>
</defs>
</svg>
