<svg width="80" height="80" viewBox="0 0 80 80" fill="none" xmlns="http://www.w3.org/2000/svg">
<path d="M40 2.5C19.3225 2.5 2.5 19.3213 2.5 40C2.5 48.5474 5.44556 56.8555 10.8142 63.5132L10.0061 74.8218C9.94751 75.6445 10.2979 76.4429 10.9436 76.9556C11.3916 77.312 11.9421 77.5 12.5 77.5C12.7466 77.5 12.9944 77.4634 13.2349 77.3901L24.2517 74.0015C29.2407 76.3232 34.5337 77.5 40 77.5C60.6775 77.5 77.5 60.6787 77.5 40C77.5 19.3213 60.6775 2.5 40 2.5ZM53.8245 42.1191L33.8245 54.6191C33.4204 54.873 32.9602 55 32.5 55C32.0825 55 31.6663 54.895 31.2878 54.6875C30.4932 54.2456 30 53.4082 30 52.5V27.5C30 26.5918 30.4932 25.7544 31.2878 25.3125C32.0825 24.8755 33.0542 24.895 33.8245 25.3809L53.8245 37.8809C54.5557 38.3374 55 39.1382 55 40C55 40.8618 54.5557 41.6626 53.8245 42.1191Z" fill="#FAA632"/>
</svg>
