<svg width="24" height="25" viewBox="0 0 24 25" fill="none" xmlns="http://www.w3.org/2000/svg">
<path d="M5.75 7.5C5.55109 7.5 5.36032 7.57902 5.21967 7.71967C5.07902 7.86032 5 8.05109 5 8.25C5 8.44891 5.07902 8.63968 5.21967 8.78033C5.36032 8.92098 5.55109 9 5.75 9H9.75C9.94891 9 10.1397 8.92098 10.2803 8.78033C10.421 8.63968 10.5 8.44891 10.5 8.25C10.5 8.05109 10.421 7.86032 10.2803 7.71967C10.1397 7.57902 9.94891 7.5 9.75 7.5H5.75Z" fill="#FAFAFA"/>
<path fill-rule="evenodd" clip-rule="evenodd" d="M21.188 8.504C21.126 8.5 21.058 8.5 20.988 8.5H18.215C15.944 8.5 14 10.236 14 12.5C14 14.764 15.944 16.5 18.215 16.5H20.988C21.058 16.5 21.126 16.5 21.188 16.496C22.111 16.44 22.927 15.739 22.996 14.759C23 14.695 23 14.626 23 14.562V10.438C23 10.374 23 10.305 22.996 10.241C22.927 9.261 22.111 8.561 21.188 8.504ZM17.971 13.567C18.555 13.567 19.029 13.089 19.029 12.5C19.029 11.91 18.555 11.433 17.971 11.433C17.386 11.433 16.911 11.911 16.911 12.5C16.911 13.09 17.386 13.567 17.971 13.567Z" fill="#FAFAFA"/>
<path opacity="0.5" d="M21.14 8.502C21.14 7.321 21.096 6.054 20.342 5.147C20.2683 5.05815 20.1905 4.97272 20.109 4.891C19.36 4.143 18.411 3.811 17.239 3.653C16.099 3.5 14.644 3.5 12.806 3.5H10.694C8.856 3.5 7.4 3.5 6.26 3.653C5.088 3.811 4.139 4.143 3.39 4.891C2.642 5.64 2.31 6.589 2.152 7.761C2 8.901 2 10.356 2 12.194V12.306C2 14.144 2 15.6 2.153 16.739C2.311 17.911 2.643 18.86 3.391 19.609C4.14 20.357 5.089 20.689 6.261 20.847C7.401 21 8.856 21 10.694 21H12.806C14.644 21 16.1 21 17.239 20.847C18.411 20.689 19.36 20.357 20.109 19.609C20.3082 19.4092 20.4846 19.1878 20.635 18.949C21.085 18.229 21.139 17.347 21.139 16.499L20.989 16.5H18.215C15.944 16.5 14 14.764 14 12.5C14 10.236 15.944 8.5 18.215 8.5H20.988C21.04 8.5 21.092 8.5 21.14 8.502Z" fill="#FAFAFA"/>
</svg>
